<?xml version="1.0" encoding="UTF-8" standalone="no"?>
<!-- Created with Inkscape (http://www.inkscape.org/) -->

<svg
   xmlns:dc="http://purl.org/dc/elements/1.1/"
   xmlns:cc="http://creativecommons.org/ns#"
   xmlns:rdf="http://www.w3.org/1999/02/22-rdf-syntax-ns#"
   xmlns:svg="http://www.w3.org/2000/svg"
   xmlns="http://www.w3.org/2000/svg"
   xmlns:sodipodi="http://sodipodi.sourceforge.net/DTD/sodipodi-0.dtd"
   xmlns:inkscape="http://www.inkscape.org/namespaces/inkscape"
   id="svg3406"
   version="1.1"
   inkscape:version="0.91 r13725"
   width="256.702"
   height="512.00012"
   viewBox="0 0 256.702 512.00012"
   sodipodi:docname="silhouette-basket-10.svg">
  <title
     id="title3341">Silhouette Basket 10</title>
  <metadata
     id="metadata3412">
    <rdf:RDF>
      <cc:Work
         rdf:about="">
        <dc:format>image/svg+xml</dc:format>
        <dc:type
           rdf:resource="http://purl.org/dc/dcmitype/StillImage" />
        <dc:title>Silhouette Basket 10</dc:title>
        <cc:license
           rdf:resource="http://creativecommons.org/publicdomain/zero/1.0/" />
        <dc:date>2017-03-26</dc:date>
        <dc:creator>
          <cc:Agent>
            <dc:title>JLouis</dc:title>
          </cc:Agent>
        </dc:creator>
        <dc:rights>
          <cc:Agent>
            <dc:title>Domaine pubic</dc:title>
          </cc:Agent>
        </dc:rights>
        <dc:publisher>
          <cc:Agent>
            <dc:title>inkscape</dc:title>
          </cc:Agent>
        </dc:publisher>
        <dc:subject>
          <rdf:Bag>
            <rdf:li>silhouette</rdf:li>
            <rdf:li>Basketball</rdf:li>
            <rdf:li>player</rdf:li>
            <rdf:li>sport</rdf:li>
            <rdf:li>basket</rdf:li>
            <rdf:li>joueurs</rdf:li>
          </rdf:Bag>
        </dc:subject>
        <dc:description>Basketball player in silhouette - Joueur de basket en silhouette</dc:description>
      </cc:Work>
      <cc:License
         rdf:about="http://creativecommons.org/publicdomain/zero/1.0/">
        <cc:permits
           rdf:resource="http://creativecommons.org/ns#Reproduction" />
        <cc:permits
           rdf:resource="http://creativecommons.org/ns#Distribution" />
        <cc:permits
           rdf:resource="http://creativecommons.org/ns#DerivativeWorks" />
      </cc:License>
    </rdf:RDF>
  </metadata>
  <defs
     id="defs3410" />
  <sodipodi:namedview
     pagecolor="#ffffff"
     bordercolor="#666666"
     borderopacity="1"
     objecttolerance="10"
     gridtolerance="10"
     guidetolerance="10"
     inkscape:pageopacity="0"
     inkscape:pageshadow="2"
     inkscape:window-width="1237"
     inkscape:window-height="756"
     id="namedview3408"
     showgrid="false"
     fit-margin-top="0"
     fit-margin-left="0"
     fit-margin-right="0"
     fit-margin-bottom="0"
     inkscape:zoom="1.1035154"
     inkscape:cx="128.351"
     inkscape:cy="256.00006"
     inkscape:window-x="0"
     inkscape:window-y="0"
     inkscape:window-maximized="1"
     inkscape:current-layer="svg3406" />
  <g
     id="g3416"
     transform="matrix(0.34218657,0,0,0.34218657,0.06206413,0.00344949)">
    <path
       style="fill:#fefefe"
       d="M 0,748.125 0,0 l 375,0 375,0 0,748.125 0,748.125 -375,0 -375,0 0,-748.125 z"
       id="path3432"
       inkscape:connector-curvature="0" />
    <path
       style="fill:#d8e4ee"
       d="m 700,1494.8671 c -3.09375,-0.61 -10.35699,-1.7005 -16.14054,-2.4235 -5.78355,-0.7228 -13.65855,-2.48 -17.5,-3.9046 -3.84145,-1.4246 -10.07821,-3.2967 -13.85946,-4.1601 -14.45256,-3.3004 -21.06387,-5.8323 -25.41711,-9.7338 l -4.48548,-4.0201 -0.23782,-14.375 c -0.27755,-16.7764 1.8933,-42.349 4.81802,-56.7561 4.06449,-20.0216 1.67598,-39.698 -7.43107,-61.2168 -2.07213,-4.8961 -4.02414,-10.5896 -4.33779,-12.6521 -0.31366,-2.0625 -6.53175,-21.9134 -13.81798,-44.1131 -10.27537,-31.307 -13.99829,-41.123 -16.59321,-43.75 -4.10891,-4.1597 -13.9853,-26.3164 -17.38962,-39.0119 -3.168,-11.8141 -8.0496,-46.8201 -7.07218,-50.7145 0.53645,-2.1374 -0.76975,-5.2515 -4.845,-11.5512 -7.8923,-12.2003 -13.67337,-24.1714 -17.61895,-36.4843 -3.83122,-11.9561 -6.28658,-17.2295 -11.88385,-25.523 -3.7999,-5.6304 -3.9549,-5.7136 -9.08938,-4.8761 -5.82797,0.9505 -21.59924,1.0946 -24.78498,0.2263 -2.83179,-0.7717 -6.06214,-3.5882 -6.07057,-5.2928 -0.004,-0.7752 -0.59387,-3.5227 -1.31118,-6.1057 -0.97882,-3.5246 -2.31195,-5.1173 -5.34331,-6.3839 -6.7446,-2.8181 -12.10931,-9.4283 -18.86641,-23.2465 -3.54294,-7.2453 -8.81837,-16.6273 -11.72317,-20.8487 -7.17278,-10.42411 -11.00406,-19.44326 -20.11792,-47.35928 -7.77526,-23.81586 -9.42658,-27.96145 -10.65039,-26.73765 -0.87245,0.87245 -16.04399,44.43268 -21.5146,61.77233 -2.38596,7.5625 -7.12314,19.7561 -10.52707,27.097 -3.40394,7.3408 -6.18898,14.1626 -6.18898,15.1594 0,0.9969 -0.9347,2.5845 -2.07711,3.5281 -1.14242,0.9435 -3.37494,4.6451 -4.96117,8.2258 -2.01683,4.5527 -4.11146,7.1451 -6.96603,8.6212 -5.92378,3.0633 -19.29348,2.5666 -31.62069,-1.1749 -5.5,-1.6693 -10.15869,-2.8963 -10.35263,-2.7266 -1.2071,1.0562 -5.72748,18.9334 -6.60503,26.1216 -1.17705,9.6414 -0.25799,14.3422 6.87183,35.1484 9.68357,28.2584 11.11929,36.2684 11.53867,64.375 0.2103,14.0938 0.44548,28.7188 0.52265,32.5 0.25246,12.3721 4.98611,55.5673 6.36022,58.0379 0.7381,1.3271 1.8679,9.2021 2.51069,17.5 0.64279,8.2979 2.01684,19.0246 3.05345,23.8371 1.03661,4.8125 2.94279,13.7346 4.23594,19.8269 1.29315,6.0922 2.52286,11.1547 2.7327,11.25 8.44881,3.8351 13.19805,11.2029 16.49227,25.5851 0.99673,4.3517 3.22823,9.9767 4.95889,12.5 1.73066,2.5234 4.35402,7.6804 5.82971,11.4599 1.47568,3.7795 3.13098,7.4357 3.67844,8.125 0.54747,0.6892 1.95107,4.6281 3.11912,8.7531 1.16805,4.125 2.96018,8.8019 3.98252,10.3931 5.22595,8.1338 -5.49432,18.766 -32.70244,32.4338 -5.51265,2.7691 -14.81996,8.6097 -20.68291,12.979 -5.86297,4.3692 -15.13387,10.0121 -20.602,12.5397 -13.13144,6.0699 -37.37213,11.0493 -58.06709,11.9278 -14.39323,0.611 -15.79749,0.4707 -17.81294,-1.7789 -2.55137,-2.848 -4.17334,-13.5169 -2.23686,-14.7138 0.71489,-0.4417 1.31795,-2.8795 1.34012,-5.4169 0.0481,-5.5044 7.13688,-16.0857 13.77199,-20.557 5.5207,-3.7204 27.66094,-32.3555 33.94015,-43.8965 1.1701,-2.1507 2.1517,-5.0353 2.18131,-6.4103 0.0296,-1.375 0.9902,-5.1126 2.13462,-8.3057 2.01476,-5.6218 1.99356,-5.9913 -0.66848,-11.6545 -3.9213,-8.3423 -4.59894,-12.629 -2.14519,-13.5707 1.48345,-0.5692 1.99528,-2.4834 1.99528,-7.462 0,-5.5265 0.54591,-7.2092 3.125,-9.6321 1.71875,-1.6146 3.12151,-3.8221 3.11725,-4.9054 -0.004,-1.0832 -1.6647,-7.5946 -3.68988,-14.4696 -2.02516,-6.875 -5.39667,-18.3382 -7.49225,-25.4739 -2.09556,-7.1356 -3.81155,-14.7293 -3.81327,-16.875 -0.007,-8.6796 -12.03098,-46.5459 -15.76379,-49.6439 -2.34811,-1.9488 -14.60336,-40.2193 -18.42484,-57.5369 -3.64621,-16.5233 -5.37777,-33.3094 -6.4957,-62.9703 -0.79703,-21.1468 -2.35216,-33.2483 -6.09767,-47.4501 -2.4465,-9.2764 -2.48826,-16.0384 -0.14709,-23.8175 2.51829,-8.3677 0.31914,-31.9522 -3.18336,-34.1395 -2.69749,-1.6846 -6.1344,-0.6813 -6.1344,1.7908 0,2.3045 -1.80363,2.2115 -3.80156,-0.1958 -1.26699,-1.5267 -1.31397,-3.5795 -0.22169,-9.6875 0.97495,-5.45196 1.00249,-9.41855 0.0929,-13.3754 -3.00057,-13.05244 -2.84161,-15.53571 1.25685,-19.63416 4.23089,-4.2309 5.05648,-6.63224 5.71263,-16.61584 0.24852,-3.78125 1.06858,-10.8125 1.82238,-15.625 0.75381,-4.8125 1.88056,-15.37425 2.50392,-23.47056 0.62335,-8.09631 1.72572,-15.43431 2.44969,-16.30665 0.72398,-0.87234 3.87469,-6.76495 7.00158,-13.0947 4.703,-9.52029 6.74978,-12.27343 11.84693,-15.93536 7.02303,-5.04554 8.35088,-8.54513 6.42029,-16.92087 -2.30616,-10.00511 -1.71349,-14.20598 2.7596,-19.55992 2.25143,-2.69479 4.77448,-4.67261 5.60678,-4.39518 0.83231,0.27744 3.25585,-0.73638 5.38563,-2.25293 2.76244,-1.96703 3.68687,-3.46674 3.22518,-5.23225 -0.35596,-1.36119 -0.1394,-3.81052 0.48125,-5.44294 0.92432,-2.43115 0.62685,-3.24575 -1.64444,-4.50311 -1.5251,-0.84427 -3.47602,-1.39237 -4.3354,-1.21799 -0.91504,0.18567 -1.5625,-0.96688 -1.5625,-2.78136 0,-1.70414 -0.6048,-4.68193 -1.34399,-6.6173 -0.7392,-1.93539 -1.2973,-9.87438 -1.24022,-17.64223 0.0907,-12.34635 0.48297,-14.86274 3.11771,-20 3.19224,-6.2243 11.88643,-15.21187 23.17939,-23.9616 5.05805,-3.91895 7.27022,-6.64719 8.49885,-10.4815 0.91354,-2.85095 2.25452,-6.38117 2.97997,-7.84494 0.98282,-1.98306 0.84523,-3.73535 -0.5398,-6.875 -3.0998,-7.02676 -4.4592,-11.44333 -5.33676,-17.33861 -0.46052,-3.09375 -1.76046,-6.66874 -2.88874,-7.94441 -1.67963,-1.89908 -2.07707,-5.52364 -2.19303,-20 -0.15137,-18.89476 0.0441,-18.09688 -9.23353,-37.68059 -3.74077,-7.89617 -3.87732,-10.69894 -1.22466,-25.13707 2.24196,-12.20277 2.3518,-15.15728 1.08631,-29.21919 -1.21711,-13.52435 -2.64874,-49.71624 -2.39074,-60.43846 0.0469,-1.94961 0.82395,-5.32461 1.72675,-7.5 1.34378,-3.23797 1.35774,-6.72216 0.077,-19.21203 -0.86042,-8.39121 -2.4874,-25.98542 -3.61551,-39.09825 -2.17407,-25.271 -5.22106,-39.95865 -9.98781,-48.145 -3.425,-5.88206 -14.47943,-17.41956 -29.7274,-31.02646 -11.22668,-10.0184 -22.29294,-23.99274 -37.46853,-47.31478 -4.61983,-7.09981 -11.54128,-16.84626 -15.381,-21.65876 -3.83971,-4.8125 -9.52356,-14.03876 -12.6308,-20.5028 -3.76151,-7.82517 -7.87621,-14.09119 -12.31253,-18.75 -7.23318,-7.59594 -22.22175,-29.60057 -27.9813,-41.0792 -4.99645,-9.95785 -19.30913,-53.95026 -23.90212,-73.46726 C 112.92063,136.66532 110.36889,126 109.34701,121.875 108.32513,117.75 106.6111,108.22263 105.53805,100.70306 104.465,93.1835 102.98985,85.915262 102.25995,84.551425 100.48227,81.22983 94.166629,75.992029 89.590959,74.04456 87.548632,73.175317 81.740975,68.534693 76.685051,63.73206 71.629129,58.929426 67.03917,55 66.485144,55 c -0.554027,0 -2.099205,0.798417 -3.433732,1.77426 -2.384761,1.743804 -2.378133,1.825652 0.386088,4.768065 3.170852,3.375256 3.646779,7.459174 1.11421,9.561019 -1.299268,1.078296 -2.491358,0.78563 -5.073676,-1.245623 l -3.375384,-2.655077 -2.758146,2.591144 c -3.42536,3.217958 -4.993758,2.300856 -8.241073,-4.81887 -1.404771,-3.079955 -3.72044,-7.040163 -5.145931,-8.800463 -1.623511,-2.004829 -3.088015,-6.543813 -3.920004,-12.149399 -1.009732,-6.803142 -1.870127,-9.120854 -3.588341,-9.666194 -1.243076,-0.394537 -4.2805,-2.088394 -6.749831,-3.764127 l -4.489691,-3.046788 -6.189202,3.808254 C 7.3777492,36.05879 0.86858999,36.095694 0.20953071,31.44017 -0.04381594,29.650556 0.93172331,27.287965 2.7095308,25.385591 5.2908615,22.623394 8.8836806,20.243879 27.208719,9.1598384 29.930749,7.513398 35.914681,5.8475217 42.411322,4.9275622 48.303845,4.0931492 55.305096,2.643097 57.969659,1.7052239 64.853615,-0.71779302 69.239734,-0.41735466 71.993765,2.665841 73.303445,4.1320536 79.71875,9.679098 86.25,14.992606 c 6.53125,5.313509 16.09375,13.769398 21.25,18.790864 5.15625,5.021466 10.44479,9.740047 11.7523,10.485735 1.30752,0.745687 2.76969,2.199545 3.24927,3.230795 0.47958,1.03125 1.81673,3.5625 2.97145,5.625 1.15473,2.0625 4.12607,7.6875 6.60299,12.5 2.47693,4.8125 6.07626,11.042355 7.99854,13.844122 3.98034,5.801431 10.77927,19.277606 16.67866,33.058798 2.21384,5.1716 11.81113,21.20285 21.32731,35.62499 17.88264,27.10186 23.27875,36.90695 34.38072,62.47209 10.48128,24.13587 10.72308,24.56851 19.21238,34.375 4.46368,5.15625 15.89754,19.69438 25.40858,32.30695 l 17.2928,22.93196 8.27424,2.73328 c 9.69252,3.20179 39.39075,22.67142 49.53826,32.47642 3.60937,3.48754 6.59328,5.7977 6.63089,5.13369 0.0376,-0.66401 0.36407,-9.8742 0.72545,-20.46708 0.48971,-14.35458 1.14685,-20.00731 2.5802,-22.19487 1.56553,-2.3893 1.65005,-3.59443 0.45451,-6.48073 -0.80776,-1.95008 -1.4915,-6.49625 -1.51944,-10.10258 -0.0429,-5.53125 0.56738,-7.32619 3.90093,-11.47435 2.17345,-2.70457 5.27682,-7.91367 6.89637,-11.57578 3.30724,-7.47825 16.48542,-20.38991 25.01859,-24.51262 12.84409,-6.20549 38.88528,-5.49948 58.05106,1.57385 26.83565,9.90396 38.92059,27.43126 38.97485,56.52686 0.0227,12.18395 -1.59348,18.36379 -6.81491,26.05799 -1.77461,2.61505 -4.34767,7.66555 -5.7179,11.22332 -1.37022,3.55778 -4.20735,10.6051 -6.30471,15.6607 -4.15034,10.00423 -5.11858,22.00761 -2.44484,30.30896 1.79583,5.5756 8.69424,11.7345 15.88961,14.18622 5.4701,1.86385 5.89462,1.8406 8.18344,-0.44824 2.38541,-2.38541 2.4682,-2.37823 6.9764,0.60515 2.50929,1.66058 6.22614,3.24077 8.25966,3.51158 2.03354,0.2708 5.78865,1.39842 8.34469,2.50583 2.55605,1.10743 5.76065,2.01349 7.12136,2.01349 1.3607,0 5.1188,1.40625 8.35132,3.125 3.23252,1.71875 6.84967,3.125 8.03808,3.125 2.67987,0 4.19882,1.8514 6.2301,7.59368 1.95531,5.52753 6.64279,8.80046 18.73679,13.08258 7.23455,2.56154 10.89525,4.78967 16.03359,9.75908 8.01611,7.75256 15.34249,20.387 19.68069,33.93966 2.86185,8.9405 3.18118,11.85412 3.01411,27.5 -0.20804,19.48072 1.2226,32.8771 5.00589,46.875 1.60471,5.93731 3.03256,17.16709 3.89395,30.625 1.20513,18.82883 1.70822,21.85466 4.41536,26.55691 l 3.05525,5.30691 -1.27701,23.44309 c -1.43035,26.25829 -3.54273,38.54552 -7.13212,41.486 -2.40921,1.97366 -3.39901,4.88393 -13.63223,40.08209 -6.49472,22.33919 -8.25609,27.26095 -17.51786,48.94992 -3.73429,8.74489 -6.78962,17.27485 -6.78962,18.9555 0,1.68064 4.5,15.91194 10,31.6251 10.00246,28.57642 11.82653,36.43785 8.125,35.01744 -2.61489,-1.00342 -2.32867,1.30035 1.06763,8.59366 1.605,3.44664 3.61358,8.37369 4.46352,10.949 0.84993,2.57533 2.05605,4.36675 2.68028,3.98097 0.62421,-0.38579 0.80885,0.14833 0.4103,1.18693 -0.81658,2.12798 1.5765,10.33018 3.33015,11.41399 0.62947,0.38904 0.8095,-0.16564 0.40007,-1.23259 -0.40944,-1.06696 -0.43702,-1.93992 -0.0613,-1.93992 0.81663,0 5.72782,16.00049 9.99903,32.57654 1.69379,6.57335 4.75716,15.57335 6.80751,20 5.4838,11.8394 16.62541,46.61867 17.42916,54.4063 0.38269,3.70789 0.007,11.00952 -0.83418,16.22586 -1.34178,8.3176 -1.28625,9.7536 0.45145,11.6737 1.08977,1.2042 1.98141,3.17 1.98141,4.3684 0,1.1985 1.46497,4.6788 3.25549,7.7341 2.19112,3.7389 3.00917,6.5365 2.5021,8.5568 -0.87528,3.4874 -7.09287,7.7141 -16.93743,11.5141 l -6.94516,2.6809 0.4591,8.5691 c 0.71367,13.3208 13.50007,55.7142 21.86502,72.4936 18.46154,37.0324 26.99359,66.977 29.51164,103.5756 2.75969,40.1109 6.90394,73.4846 9.67768,77.9346 1.00604,1.614 2.29763,7.8015 2.87021,13.75 0.87296,9.069 2.49742,17.8924 6.83555,37.1278 0.31784,1.4093 2.56802,3.5115 5.0004,4.6713 5.08579,2.4253 9.39394,8.7054 9.40072,13.7038 0.003,2.2201 0.66869,3.4375 1.87968,3.4375 1.03125,0 1.90977,0.7031 1.95227,1.5625 0.88664,17.9267 5.3166,33.6511 11.91324,42.2869 5.13469,6.7217 26.64056,26.536 31.79659,29.2955 3.30756,1.7701 8.7129,9.8133 8.7129,12.965 0,1.3709 0.5625,2.8402 1.25,3.2651 0.69051,0.4268 1.25,6.0546 1.25,12.5738 l 0,11.8012 -22.1875,-0.137 c -12.20313,-0.075 -24.71875,-0.636 -27.8125,-1.2459 z M 525.32943,700.98604 c 0.83227,-5.16407 2.03383,-4.84152 -10.64193,-2.85673 -2.57813,0.40369 -4.6875,1.04916 -4.6875,1.43439 0,0.38522 1.40625,2.37164 3.125,4.41426 1.71875,2.04261 3.125,4.43859 3.125,5.32438 0,0.88578 1.25775,3.20949 2.79499,5.16377 l 2.795,3.55325 1.3709,-6.19717 c 0.754,-3.40845 1.70733,-8.28472 2.11854,-10.83615 z"
       id="path3430"
       inkscape:connector-curvature="0" />
    <path
       style="fill:#a1cceb"
       d="m 694.375,1494.1419 c -18.02212,-2.7956 -55.27645,-12.6379 -63.26774,-16.7148 -2.65139,-1.3526 -5.63197,-3.7176 -6.62352,-5.2557 -3.70231,-5.7428 -2.14428,-48.8938 2.58331,-71.5464 3.6338,-17.4116 3.51393,-25.7421 -0.60362,-41.9485 -2.01903,-7.9466 -5.19546,-18.0716 -7.05874,-22.5 -1.86329,-4.4282 -3.84901,-10.5827 -4.41271,-13.6765 -0.56371,-3.0937 -2.95668,-10.9687 -5.31773,-17.5 -2.36105,-6.5312 -7.55185,-22.2812 -11.5351,-35 -7.3399,-23.4368 -10.99431,-32.5 -13.10443,-32.5 -1.59995,0 -10.75068,-19.5769 -15.19133,-32.5 -4.02718,-11.7198 -10.42733,-51.6132 -9.11759,-56.8316 0.59991,-2.3902 -0.58421,-5.2506 -5.05354,-12.2075 -7.56611,-11.7774 -13.21276,-23.7278 -18.13076,-38.3716 -4.11376,-12.2491 -5.6253,-15.4236 -10.63545,-22.3367 -1.64321,-2.2673 -3.17319,-4.679 -3.39994,-5.3593 -0.26932,-0.8079 -4.56307,-0.7473 -12.38285,0.175 -9.9678,1.1755 -12.8931,1.1038 -17.48442,-0.4288 -5.11005,-1.7058 -5.69693,-2.3649 -8.01384,-8.9996 -2.03781,-5.8356 -3.33185,-7.5841 -6.99959,-9.4579 -6.70927,-3.4279 -12.1571,-10.3992 -18.05241,-23.101 -2.90606,-6.2614 -7.94454,-15.2707 -11.1966,-20.0208 -7.24479,-10.58211 -9.94099,-16.60013 -16.77181,-37.4352 -7.73866,-23.60411 -11.24861,-33.5028 -12.63219,-35.625 -1.08657,-1.66666 -1.35946,-1.66666 -2.45601,0 -0.67849,1.03125 -3.83814,9.75 -7.02143,19.375 -3.1833,9.625 -7.34202,21.4375 -9.24162,26.25 -1.8996,4.8125 -4.6068,12.96875 -6.016,18.125 -1.40921,5.1562 -5.4141,15.4803 -8.89976,22.9423 -3.48567,7.462 -6.33758,14.3095 -6.33758,15.2166 0,0.9071 -1.42133,3.3384 -3.1585,5.403 -1.73717,2.0645 -3.88512,5.9045 -4.77324,8.5334 -3.27455,9.6929 -16.69576,11.8934 -37.36721,6.1267 l -10.92394,-3.0474 -3.01962,10.2252 c -5.80209,19.6473 -5.31446,27.8853 2.99895,50.6646 2.02551,5.55 5.49966,17.0029 7.72032,25.4508 4.00598,15.2396 4.04034,15.623 4.38865,48.985 0.20664,19.7925 1.10197,39.5901 2.1764,48.125 1.00394,7.9749 2.2147,18.4152 2.69059,23.2007 0.47589,4.7855 1.63078,10.533 2.56643,12.7724 0.93565,2.2392 1.71126,7.6051 1.72359,11.9241 0.0278,9.7253 2.63869,27.0737 6.10442,40.5608 1.44274,5.6147 2.62316,11.6792 2.62316,13.4768 0,1.9875 0.85735,3.5689 2.1875,4.035 5.6926,1.995 10.13214,8.261 13.45577,18.9916 1.83783,5.9337 5.81992,15.7398 8.84912,21.7915 3.02919,6.0516 5.50761,11.7484 5.50761,12.6594 0,0.911 0.80501,2.3245 1.78893,3.1411 0.98391,0.8165 2.38819,4.279 3.12066,7.6943 0.73245,3.4153 2.48643,8.4731 3.89775,11.2395 1.4113,2.7663 2.23382,6.0764 1.82781,7.3556 -2.13878,6.7387 -10.93991,13.4744 -34.05426,26.0625 -7.72427,4.2066 -17.56802,10.4065 -21.875,13.7775 -9.07093,7.0997 -20.07626,12.8986 -29.77124,15.687 -22.94807,6.6 -59.26656,10.4192 -64.11281,6.742 -2.74848,-2.0855 -5.21066,-13.3481 -3.32938,-15.2295 0.69165,-0.6916 1.25754,-2.873 1.25754,-4.8474 0,-5.3626 5.53634,-13.7945 13.70236,-20.8689 3.99535,-3.4612 9.71867,-9.7522 12.71847,-13.9801 2.9998,-4.2278 7.01232,-9.4306 8.91672,-11.5616 8.928,-9.9902 14.51299,-21.3342 18.05148,-36.6654 0.35428,-1.535 -0.86257,-6.5545 -2.70409,-11.1546 -2.95295,-7.3764 -3.11724,-8.493 -1.39159,-9.4587 1.42845,-0.7994 1.95665,-3.0729 1.95665,-8.4218 0,-6.6029 0.36971,-7.6379 3.7422,-10.4756 l 3.7422,-3.1489 -4.51927,-15.3997 c -2.4856,-8.4699 -6.13834,-20.9568 -8.1172,-27.7487 -1.97887,-6.7919 -3.59935,-14.1043 -3.60108,-16.25 -0.007,-8.576 -10.19985,-40.6539 -15.0226,-47.2772 -3.18324,-4.3717 -15.1192,-41.6101 -19.20116,-59.9047 -3.65828,-16.3957 -5.36154,-33.1018 -6.39223,-62.6968 -0.78192,-22.4522 -1.63846,-29.1265 -5.91583,-46.097 -2.49253,-9.8892 -2.58652,-11.5096 -1.08758,-18.75 1.97936,-9.5611 2.17586,-16.042 0.87748,-28.9417 -0.88049,-8.7479 -1.30903,-9.9148 -4.10989,-11.1909 -2.72426,-1.2413 -3.41416,-1.0439 -5.35778,1.5328 l -2.23087,2.9575 -1.47934,-2.7641 c -1.10441,-2.0636 -1.13761,-4.4122 -0.13101,-9.2666 0.97174,-4.68631 0.96347,-8.248 -0.0296,-12.7524 -3.05216,-13.84405 -2.97843,-14.71581 1.72014,-20.33964 3.81118,-4.56168 4.4514,-6.34 5.15173,-14.3097 0.43983,-5.00536 1.32576,-12.47566 1.96872,-16.60066 0.64296,-4.125 1.67108,-14.25 2.28469,-22.5 l 1.11567,-15 7.79559,-14.71296 c 6.32458,-11.93666 8.81441,-15.41393 13.19484,-18.42774 6.49849,-4.47109 7.54801,-8.00364 5.58845,-18.81 -0.7776,-4.2882 -1.05093,-9.25981 -0.60739,-11.04801 0.97909,-3.94738 5.37061,-8.87629 7.90851,-8.87629 2.78183,0 9.79662,-5.77427 10.55969,-8.69229 0.36838,-1.40863 0.19588,-2.26828 -0.38332,-1.91032 -0.57919,0.35797 -0.57338,-1.0218 0.0129,-3.06614 0.95259,-3.32148 0.65388,-3.97794 -2.80726,-6.16938 -5.10059,-3.22946 -7.0423,-10.66572 -7.11428,-27.24573 -0.0433,-9.95273 0.47842,-13.95366 2.40522,-18.44869 3.00582,-7.01233 11.3448,-16.10619 22.73375,-24.79176 4.70572,-3.58874 8.55587,-7.40264 8.55587,-8.47533 0,-1.0727 0.44768,-2.48474 0.99483,-3.13786 0.54715,-0.65313 1.70422,-3.28489 2.57127,-5.84838 1.30256,-3.85108 1.26884,-5.37132 -0.19415,-8.75 -4.00781,-9.25601 -4.62185,-11.2626 -4.62185,-15.10394 0,-2.21222 -1.26203,-6.26387 -2.8045,-9.00369 -2.50116,-4.44268 -2.81675,-6.80673 -2.91772,-21.85649 -0.11213,-16.70579 -0.16058,-16.98154 -4.83499,-27.5 -8.65421,-19.47386 -8.43329,-18.14694 -5.60199,-33.64762 2.30501,-12.61934 2.39765,-15.34784 1.07434,-31.64376 -2.28854,-28.18211 -2.55467,-60.705 -0.53627,-65.53569 1.45265,-3.47668 1.36553,-7.33841 -0.60756,-26.92833 -1.26687,-12.57829 -2.66092,-27.65085 -3.09789,-33.4946 -1.2187,-16.29838 -3.12171,-28.55266 -5.85082,-37.67591 -3.05263,-10.20469 -11.74328,-21.0134 -28.19984,-35.07258 -16.10946,-13.76264 -23.53572,-22.73137 -38.77791,-46.8323 -4.85435,-7.67567 -11.7051,-17.41525 -15.22388,-21.6435 -8.3716,-10.0595 -13.94558,-18.91512 -17.6997,-28.12021 -1.965,-4.81819 -5.73728,-10.36429 -10.62766,-15.625 -8.25275,-8.87771 -26.38894,-35.88921 -30.38194,-45.24995 C 127.48902,192.18291 108.37452,122.78626 105.17832,98.09731 104.46433,92.58208 103.429,86.882782 102.87758,85.432205 101.66921,82.253427 91.734228,73.75 89.228671,73.75 88.247035,73.75 82.932759,69.53125 77.419167,64.375 71.905577,59.21875 66.963215,55 66.436141,55 c -0.527075,0 -1.991615,0.755566 -3.254534,1.679035 -2.208837,1.615141 -2.189528,1.823339 0.50738,5.471104 1.541979,2.085639 2.601933,4.839237 2.355452,6.119111 -0.607254,3.153213 -4.445514,3.683991 -7.387444,1.021581 -2.289332,-2.071816 -2.526929,-2.069761 -4.860439,0.04204 -3.182864,2.880452 -5.794893,1.78228 -7.946597,-3.340979 C 44.898986,63.7276 42.681225,59.760829 40.9216,57.176842 38.970734,54.31202 37.157971,49.13306 36.276159,43.905086 35.037617,36.562182 34.348797,35.089871 31.477516,33.648289 29.633632,32.72253 26.620514,30.952325 24.781697,29.714503 21.483252,27.49411 21.340511,27.517294 14.14286,31.442426 5.6267099,36.086585 0,35.84494 0,30.835049 0,27.248434 4.5992202,22.850056 14.807563,16.674116 19.170472,14.034603 24.344846,10.855637 26.306172,9.6097496 28.267499,8.3638619 35.666595,6.3073954 42.74861,5.039824 49.830624,3.7722526 57.208494,2.1197404 59.143875,1.3675744 65.50031,-1.1027887 69.212061,-0.31072024 73.817291,4.4988051 76.186531,6.9731479 82.0625,11.983232 86.875,15.632325 c 4.8125,3.649092 13.7968,11.48554 19.9651,17.414326 6.16831,5.928786 12.49644,11.61917 14.0625,12.645297 1.56607,1.026126 2.8474,2.634091 2.8474,3.573254 0,0.939164 2.25,5.557894 5,10.263847 2.75,4.705951 5,9.098631 5,9.761509 0,0.662878 2.48201,4.904604 5.51557,9.426058 3.03357,4.521455 9.1303,16.086839 13.54829,25.700854 4.418,9.61402 11.12553,22.25622 14.90563,28.09378 3.7801,5.83756 11.68787,17.96402 17.57283,26.94769 12.06837,18.42291 16.93923,27.77772 28.94673,55.59415 7.29405,16.8973 9.50437,20.7238 16.96807,29.375 4.71987,5.4708 16.36349,20.3116 25.87473,32.97955 15.57675,20.74657 17.78941,23.17645 22.29315,24.48156 2.75,0.79691 7.53125,2.74974 10.625,4.33962 9.73856,5.00467 35.3484,22.71987 42.1875,29.18253 l 6.5625,6.20129 0.24796,-4.24382 c 0.36108,-6.18 0.66508,-14.15648 0.97084,-25.47392 0.15761,-5.83391 1.03477,-11.45975 2.11138,-13.54168 1.42961,-2.76455 1.5428,-4.41917 0.50578,-7.39392 -0.73477,-2.1078 -1.33596,-6.64361 -1.33596,-10.07959 0,-5.23294 0.68002,-7.07994 4.18842,-11.37597 2.30364,-2.8208 5.42754,-7.94124 6.94202,-11.37874 3.1854,-7.23008 6.79246,-11.33154 16.36956,-18.61323 10.16864,-7.73145 12.83554,-8.58561 28.75,-9.2081 18.48577,-0.72307 30.44312,1.64993 45.8112,9.09152 13.63149,6.60068 21.0725,14.2043 26.22561,26.79873 2.9806,7.28474 3.36054,9.893 3.46776,23.80608 l 0.12043,15.625 -7.75678,15.625 C 453.75693,344.63946 451.25,352.08724 451.25,363.19369 c 0,5.1983 0.77745,11.2473 1.74236,13.55669 2.09169,5.0061 8.32384,10.00182 15.7425,12.61928 5.18431,1.82913 5.56803,1.79672 8.21979,-0.69448 1.80785,-1.69839 3.07431,-2.13958 3.61775,-1.26029 1.25199,2.02576 8.33209,5.42472 12.25929,5.88532 1.90117,0.22299 4.99492,1.18399 6.875,2.13555 1.88007,0.95157 5.56863,2.11971 8.19681,2.59589 2.62817,0.47618 6.56568,1.9555 8.75,3.28739 2.18433,1.33189 5.16825,2.42372 6.63095,2.42628 3.19658,0.005 4.67619,1.69899 6.5573,7.50468 1.66924,5.15176 6.81104,8.98304 16.55476,12.33537 3.82053,1.31445 8.66593,3.27912 10.76755,4.36592 6.21614,3.21447 16.41825,15.69783 21.59499,26.42371 7.34251,15.21321 8.98437,23.32944 8.7139,43.07555 -0.25493,18.61022 1.03755,30.49026 4.96909,45.67445 1.62436,6.2735 3.09178,17.91882 3.93782,31.25 1.2204,19.22989 1.63788,21.67671 4.39161,25.73871 l 3.043,4.48872 -1.30998,23.01128 c -0.7205,12.65621 -1.82648,25.82379 -2.45773,29.26129 -0.63125,3.4375 -1.18126,6.97999 -1.22225,7.87219 -0.041,0.8922 -1.4223,2.87127 -3.0696,4.39793 -2.21074,2.04884 -4.67431,8.49847 -9.40715,24.62783 -10.2744,35.01482 -13.07666,43.21314 -21.84812,63.91889 l -8.289,19.56683 10.1412,29.18317 c 11.37125,32.72287 12.53105,37.30816 9.43671,37.30816 -2.68285,0 -2.57719,2.79102 0.3213,8.4873 1.29793,2.55074 4.12924,9.7002 6.29181,15.8877 2.16258,6.1875 4.94494,12.65625 6.18303,14.375 2.28692,3.1748 5.87596,14.05205 9.48631,28.75 1.09767,4.46875 3.86846,12.625 6.1573,18.125 4.6321,11.13081 13.78147,37.67025 16.50421,47.87349 2.14243,8.02852 2.20739,12.73126 0.33268,24.08311 -1.25828,7.6191 -1.18138,8.9682 0.625,10.9642 1.1329,1.2518 2.05981,3.2904 2.05981,4.5301 0,1.2397 1.08265,4.0079 2.40587,6.1516 1.32324,2.1436 2.58887,5.5386 2.8125,7.5445 0.33874,3.0381 -0.48415,4.333 -4.92876,7.7558 -2.93446,2.2599 -8.41337,5.0791 -12.17536,6.265 l -6.83999,2.1561 0.73596,8.8381 c 1.03797,12.4649 13.4428,55.3837 19.49408,67.4464 19.99204,39.8525 29.6192,72.6129 32.18316,109.5166 3.01563,43.4044 6.88999,73.6096 10.25908,79.9815 1.39833,2.6446 2.32685,7.0652 2.36297,11.25 0.0327,3.7914 1.61755,14.206 3.5218,23.1435 l 3.4623,16.25 4.63733,2.2134 c 5.27892,2.5196 9.5575,8.6591 9.56439,13.7241 0.003,2.2201 0.66868,3.4375 1.87967,3.4375 1.03125,0 1.90978,0.9844 1.95228,2.1875 0.23637,6.6909 2.43198,20.6605 4.27307,27.1875 2.77785,9.848 9.23764,18.0687 24.82159,31.5877 17.5283,15.2059 23.32806,21.3622 23.32806,24.762 0,1.5828 0.5625,3.2254 1.25,3.6503 0.69051,0.4267 1.25,6.0546 1.25,12.5737 l 0,11.8013 -22.1875,-0.1815 c -12.20312,-0.1 -27.25,-0.9669 -33.4375,-1.9266 z M 524.35151,706.79411 c 1.04394,-5.45551 1.89815,-9.95591 1.89828,-10.0009 1.1e-4,-0.045 -2.10917,0.0346 -4.68729,0.17695 -9.21161,0.50845 -13.8456,2.72126 -10.29464,4.91588 0.69733,0.43097 2.45036,3.13605 3.89564,6.01127 2.65282,5.27751 6.1497,9.95615 6.8889,9.21697 0.22058,-0.22059 1.25518,-4.86467 2.29911,-10.32017 z"
       id="path3428"
       inkscape:connector-curvature="0" />
    <path
       style="fill:#89bbe0"
       d="m 704.75249,1495.5859 c -0.3653,-0.3654 -6.78718,-1.4929 -14.27084,-2.5058 -14.94466,-2.0225 -18.72251,-2.8617 -29.85665,-6.6326 -4.125,-1.397 -11.4375,-3.4601 -16.25,-4.5846 -9.38755,-2.1934 -18.61487,-6.853 -20.4754,-10.3396 -2.99954,-5.621 -0.90265,-52.4394 3.17536,-70.8983 2.92522,-13.2407 3.4167,-22.596 1.70148,-32.3865 -1.79984,-10.2734 -8.00866,-30.5196 -11.42368,-37.2512 -1.29401,-2.5508 -2.35543,-5.9258 -2.3587,-7.5 -0.006,-3.2597 -24.04187,-76.7701 -26.92178,-82.3392 -1.03757,-2.0065 -2.40748,-3.6481 -3.04425,-3.6481 -1.59386,0 -10.75093,-19.5977 -15.18569,-32.5 -3.98544,-11.5951 -10.39642,-51.7321 -9.09272,-56.9265 0.56998,-2.271 -0.69789,-5.2956 -5.07736,-12.1126 -7.7131,-12.0062 -13.28521,-23.8649 -18.30585,-38.9589 -2.26355,-6.8051 -5.39667,-14.1176 -6.96251,-16.25 -1.56583,-2.1323 -3.80998,-5.7099 -4.98699,-7.9501 l -2.14002,-4.073 -8.20095,0.9467 c -10.06378,1.1619 -16.83708,1.0151 -22.57594,-0.4892 -3.93416,-1.0313 -4.60498,-1.8691 -6.6573,-8.3146 -1.92915,-6.0586 -3.01128,-7.5396 -6.99335,-9.5711 -6.91774,-3.5292 -12.32704,-10.4016 -18.27635,-23.2197 -2.90606,-6.2613 -7.95664,-15.2816 -11.22349,-20.0451 -3.26685,-4.7635 -7.04377,-11.19215 -8.39315,-14.2859 -3.02622,-6.93827 -11.1786,-30.50596 -14.05272,-40.625 -2.6409,-9.29786 -6.89115,-19.375 -8.17184,-19.375 -1.20956,0 -3.40509,5.59535 -9.31909,23.75 -2.57551,7.90625 -5.98809,17.49702 -7.5835,21.31282 -1.59541,3.8158 -4.32741,12.01199 -6.0711,18.21377 -1.7437,6.20171 -6.00261,17.34121 -9.46424,24.75451 -3.46163,7.4131 -6.29387,14.2207 -6.29387,15.1278 0,0.9071 -1.42133,3.3384 -3.1585,5.403 -1.73718,2.0645 -3.88513,5.9045 -4.77324,8.5334 -3.1487,9.3204 -15.69847,11.754 -34.69996,6.7291 -5.22869,-1.3828 -10.39919,-2.8566 -11.49001,-3.2752 -1.58671,-0.6089 -2.60039,1.3223 -5.06918,9.6574 -5.84355,19.7288 -5.38654,28.6423 2.54391,49.6162 1.72655,4.5662 5.15875,15.896 7.6271,25.1772 l 4.48792,16.875 0.33947,32.5 c 0.35011,33.5198 3.80186,73.8452 7.32924,85.625 0.92641,3.0938 2.0124,11.25 2.41332,18.125 0.40093,6.875 1.60437,16.4375 2.6743,21.25 1.06994,4.8125 2.94213,13.4855 4.16042,19.2734 1.67407,7.9532 2.79817,10.7437 4.60263,11.4258 5.5287,2.0897 12.33935,14.0552 14.89893,26.1758 0.50815,2.4062 3.04731,8.3125 5.64259,13.125 2.59528,4.8125 5.12326,10.1562 5.61772,11.875 0.49448,1.7187 1.59698,3.9687 2.45003,5 0.85303,1.0312 2.21988,4.6225 3.03745,7.9805 0.81755,3.358 2.61377,8.3152 3.99161,11.016 2.4378,4.7785 2.44459,5.0339 0.2522,9.503 -2.9071,5.926 -10.64586,11.6497 -30.6216,22.6482 -8.88064,4.8897 -19.91194,11.7833 -24.51399,15.3193 -4.60205,3.5359 -12.30486,8.2999 -17.11736,10.5867 -19.04393,9.0497 -69.09236,16.4597 -76.17779,11.2787 -2.56706,-1.8772 -4.87736,-13.2508 -3.07634,-15.1449 0.62103,-0.6531 1.12913,-2.803 1.12913,-4.7774 0,-5.3626 5.53634,-13.7945 13.70236,-20.8689 3.99535,-3.4612 9.71866,-9.7668 12.71846,-14.0126 2.9998,-4.2457 6.89235,-9.2424 8.65012,-11.1036 8.59011,-9.096 14.44401,-20.9636 18.29568,-37.0909 0.3736,-1.5642 -0.80502,-6.4667 -2.68168,-11.1546 -2.95295,-7.3764 -3.11724,-8.493 -1.39159,-9.4588 1.40746,-0.7876 1.95665,-3.0342 1.95665,-8.004 0,-6.0193 0.48584,-7.3948 3.77289,-10.682 l 3.7729,-3.7728 -7.60075,-25.1934 c -4.18042,-13.8565 -7.90735,-28.2873 -8.28209,-32.0685 -1.2351,-12.4628 -10.03138,-40.9969 -14.80806,-48.0357 -3.79029,-5.5853 -15.64412,-41.9921 -19.76818,-60.7143 -3.73969,-16.9772 -5.51112,-34.2789 -6.39906,-62.5 -0.6419,-20.4013 -2.29159,-33.0165 -6.36909,-48.7046 -2.18166,-8.3939 -1.82469,-19.1127 0.79985,-24.0167 1.55896,-2.9129 -0.84584,-29.4625 -2.89544,-31.9662 -1.9772,-2.4153 -5.47535,-1.8527 -7.50712,1.2073 l -1.83909,2.7698 -1.44155,-2.6935 c -1.05841,-1.9777 -1.08771,-4.3434 -0.11025,-8.9013 0.96396,-4.4948 0.93719,-8.05128 -0.097,-12.88878 -3.15137,-14.74038 -3.10055,-15.35968 1.69625,-20.66917 4.88681,-5.40913 4.85438,-5.22569 8.79956,-49.76185 l 1.66095,-18.75 7.65603,-14.42811 c 6.22527,-11.73182 8.70531,-15.16773 13.27085,-18.38582 6.86105,-4.83611 7.72296,-7.79193 5.70762,-19.57366 -2.0148,-11.77862 -0.4378,-15.21267 9.23292,-20.10561 7.07537,-3.57981 10.29556,-8.34858 8.60768,-12.74708 -0.52488,-1.36786 -0.30051,-1.74561 0.67775,-1.14101 3.01264,1.86191 1.30219,-0.76796 -3.15556,-4.85181 -6.035,-5.52879 -7.8395,-11.9249 -7.86304,-27.87095 -0.0166,-11.30253 0.36352,-13.60886 3.14983,-19.10739 4.13376,-8.15757 9.8805,-14.40465 21.29009,-23.1437 C 300.819,734.10584 305,729.96892 305,728.82672 c 0,-1.1422 0.46469,-2.6111 1.03265,-3.26422 0.56796,-0.65313 1.7562,-3.49694 2.64054,-6.31959 1.32325,-4.22361 1.31298,-5.66189 -0.058,-8.125 -2.72538,-4.89639 -4.82628,-11.50686 -4.84637,-15.24899 -0.01,-1.92835 -1.2766,-6.1471 -2.81388,-9.375 -2.41965,-5.08062 -2.81305,-8.0516 -2.92895,-22.11892 -0.1258,-15.26915 -0.3721,-16.81588 -4.08053,-25.625 -2.17065,-5.15625 -4.79012,-10.86804 -5.82105,-12.69286 -2.41397,-4.27295 -2.38145,-13.33798 0.0908,-25.29237 1.69446,-8.19353 1.76149,-12.04343 0.48659,-27.9462 -2.36781,-29.5353 -2.60419,-61.2841 -0.49388,-66.3348 1.53617,-3.67655 1.52873,-6.54175 -0.0553,-21.30332 -1.00658,-9.3805 -2.74231,-27.43476 -3.85713,-40.1206 -2.26437,-25.7664 -5.22595,-39.44018 -10.15582,-46.88969 -3.44896,-5.21175 -11.88586,-13.84255 -31.20301,-31.92016 -11.93294,-11.16723 -20.0895,-21.57613 -32.32409,-41.25 -4.06158,-6.53125 -10.93202,-16.09375 -15.26765,-21.25 -4.86995,-5.79171 -10.35187,-14.39161 -14.34238,-22.5 -4.47489,-9.09261 -8.63373,-15.42921 -13.53659,-20.625 -8.32966,-8.82734 -26.50679,-36.56381 -30.58896,-46.67573 -9.95964,-24.67083 -27.24296,-86.90364 -30.631,-110.2943 C 103.55178,85.05448 102.79443,83.063829 96.565865,78.211194 93.416489,75.757537 90.05267,73.75 89.090712,73.75 88.128755,73.75 82.912934,69.53125 77.5,64.375 72.087066,59.21875 67.200809,55.019932 66.64165,55.044294 c -0.559158,0.02436 -2.320338,0.767648 -3.913733,1.651747 -2.667993,1.480343 -2.73183,1.7446 -0.80728,3.341834 1.14939,0.95391 2.577923,3.018239 3.174517,4.587399 2.230079,5.865551 -1.92392,8.750889 -6.559228,4.555991 -2.130065,-1.927681 -2.453209,-1.917345 -4.73937,0.151603 -3.084975,2.791863 -5.974174,1.745987 -7.564567,-2.738336 C 45.555219,64.68629 44.430549,62.28125 43.732724,61.25 43.034899,60.21875 41.382655,57.737835 40.061071,55.736855 38.739487,53.735875 37.012009,48.267702 36.22223,43.58536 L 34.786267,35.07201 27.899765,31.342121 21.013262,27.612234 14.46806,31.306116 C 7.4311669,35.277494 3.8785161,35.878516 1.5,33.5 -2.5857241,29.414276 0.02237912,26.460524 17.749835,15.096593 c 11.226173,-7.1963771 12.986461,-7.9078448 23.75,-9.5991986 6.39384,-1.0047113 13.745923,-2.6526432 16.33796,-3.662071 7.75544,-3.0202327 10.474938,-2.37692425 17.549531,4.1514138 3.56822,3.2927054 10.591045,9.2435978 15.606277,13.2242068 5.015231,3.980607 12.890227,10.9897 17.499997,15.575762 4.60977,4.586061 9.94712,9.347984 11.86078,10.582049 1.91365,1.234066 3.34132,2.921566 3.17259,3.75 -0.16873,0.828435 1.26602,3.9607 3.18834,6.96059 1.92233,2.99989 4.52639,7.860147 5.7868,10.800573 1.26041,2.940423 4.5279,8.642218 7.26109,12.670653 2.73319,4.028436 7.84512,13.793179 11.35986,21.699429 8.5549,19.24386 9.34541,20.6269 27.47243,48.06385 16.93647,25.63497 24.16893,39.01814 35.74968,66.15229 4.07063,9.53762 9.11759,19.48207 11.21548,22.09879 2.09789,2.61669 7.23344,8.87568 11.41232,13.90886 4.1789,5.03316 12.27175,15.61996 17.98414,23.52621 15.48026,21.42555 19.52683,25.94009 24.14613,26.93864 2.21196,0.47816 6.81973,2.27971 10.23948,4.00343 9.70314,4.89087 34.36384,21.80993 42.11478,28.89384 l 7.00985,6.40661 0.7872,-4.05876 c 0.43295,-2.23231 0.79498,-4.90251 0.80447,-5.93376 0.01,-1.03125 0.0739,-6.09375 0.14311,-11.25 0.0693,-5.15625 0.0484,-11.0625 -0.0464,-13.125 -0.0948,-2.0625 0.7631,-5.86474 1.90624,-8.44941 1.6707,-3.7775 1.79492,-5.32168 0.63322,-7.87132 -0.79486,-1.74455 -1.44521,-5.91484 -1.44521,-9.26735 0,-5.02256 0.75792,-7.08836 4.30604,-11.73666 2.36832,-3.10266 5.54304,-8.51668 7.05492,-12.03116 3.30208,-7.67586 14.70949,-18.44034 24.88904,-23.48624 6.46109,-3.20269 7.89097,-3.40786 23.75,-3.40786 19.06846,0 27.33992,1.70984 42.18353,8.71996 21.33067,10.07375 31.39313,29.0256 30.13388,56.75476 -0.40621,8.94489 -1.01208,10.90598 -6.84914,22.16912 -3.52193,6.79588 -8.44308,17.4884 -10.9359,23.76113 -3.82243,9.61854 -4.53237,12.90443 -4.53237,20.97765 0,5.29708 0.7681,11.41101 1.71971,13.68852 2.25863,5.40566 9.78228,11.49645 16.21927,13.13032 4.48669,1.13885 5.48596,0.99039 7.76872,-1.15415 2.55161,-2.39711 2.67444,-2.40065 4.72408,-0.13582 1.1574,1.27891 4.48685,3.00977 7.39878,3.84639 2.91194,0.83659 6.98194,2.10222 9.04444,2.81251 2.0625,0.71028 6.28125,1.8656 9.375,2.56735 3.09375,0.70176 6.29904,1.81821 7.12285,2.481 0.82383,0.66278 4.12363,2.14471 7.33291,3.29316 5.09845,1.82451 6.09463,2.79086 7.89133,7.65515 1.70505,4.61615 3.12142,6.11074 8.2921,8.75 3.4297,1.75062 9.32956,4.22459 13.11081,5.49771 12.15634,4.09294 25.04599,19.97416 32.27599,39.76699 3.0674,8.39731 3.36455,10.85 3.53382,29.16825 0.22064,23.87769 0.99623,31.20785 4.95753,46.85425 2.04476,8.07639 3.42995,18.63306 4.3465,33.125 1.06372,16.81914 1.80981,21.92982 3.56496,24.41992 3.65798,5.1897 3.83043,7.19628 2.57616,29.97583 -1.36695,24.8259 -3.80846,38.42686 -7.40368,41.2437 -1.59034,1.24602 -4.5679,9.26799 -8.81774,23.7563 -10.55058,35.96834 -13.1078,43.47332 -21.81196,64.01401 l -8.32208,19.63903 7.96666,22.86097 c 13.47099,38.65612 14.14192,41.08738 11.7133,42.44649 -2.86022,1.60066 -2.64468,3.29666 1.62967,12.82339 2.04001,4.5468 4.51952,10.99588 5.51003,14.33128 1.9091,6.42864 5.49526,14.09322 7.0814,15.13483 0.52345,0.34375 3.22683,8.95115 6.00749,19.12755 2.78065,10.1764 6.71175,22.27015 8.73575,26.875 4.69033,10.67101 16.10414,45.47084 17.19065,52.41292 0.45541,2.90977 0.122,9.82893 -0.74089,15.37593 -1.68651,10.8413 -1.81812,10.2299 5.1573,23.9562 3.80563,7.4888 3.14959,11.6569 -2.47616,15.7322 -2.65392,1.9224 -7.99099,4.5714 -11.86014,5.8866 l -7.03483,2.3912 0.71023,8.8087 c 0.99795,12.377 13.4159,55.2952 19.50653,67.4171 20.15352,40.1111 29.69329,72.9011 32.22581,110.7666 2.66383,39.8286 7.03666,74.6319 9.77632,77.8095 1.16068,1.3462 2.24628,6.3829 2.82894,13.125 0.79541,9.2038 2.43889,18.2288 6.8294,37.503 0.40956,1.798 1.56855,2.8125 3.21302,2.8125 4.07198,0 9.69801,6.5465 10.62889,12.368 0.46783,2.9255 1.51224,5.132 2.42924,5.132 1.10289,0 1.86513,3.0455 2.42462,9.6875 0.44881,5.3281 1.31423,11.0938 1.92317,12.8125 0.60894,1.7188 1.7477,5.6563 2.53058,8.75 1.97441,7.8025 9.36367,16.9131 24.09878,29.7128 17.52483,15.2229 21.95753,19.8466 22.78084,23.7622 0.3932,1.87 1.24342,4.3768 1.8894,5.5705 0.64598,1.1939 1.1745,6.9595 1.1745,12.8125 l 0,10.642 -22.29166,0 c -12.26043,0 -22.59055,-0.2989 -22.95585,-0.6641 z M 523.72301,710.3125 c 3.03004,-15.55318 3.45355,-13.84946 -3.33984,-13.43561 -8.86986,0.54035 -12.82723,2.71505 -9.11531,5.00915 0.69733,0.43097 2.45036,3.13605 3.89564,6.01127 2.32764,4.63059 5.85715,9.60269 6.81661,9.60269 0.18845,0 0.97276,-3.23437 1.7429,-7.1875 z"
       id="path3426"
       inkscape:connector-curvature="0" />
    <path
       style="fill:#6cb4e7"
       d="m 704.75249,1495.5859 c -0.3653,-0.3654 -6.78718,-1.4929 -14.27084,-2.5058 -15.99087,-2.1641 -20.0962,-3.1101 -28.96542,-6.6742 -3.63483,-1.4608 -7.85358,-2.6632 -9.375,-2.672 -4.06357,-0.024 -18.22168,-4.6752 -22.75145,-7.4748 -2.15688,-1.333 -4.56638,-3.7085 -5.35444,-5.2789 -3.10486,-6.1871 -1.11896,-51.9452 3.0534,-70.3552 3.48767,-15.3889 3.48037,-25.9359 -0.0281,-40.625 -1.72418,-7.2188 -4.92348,-17.3438 -7.10956,-22.5 -2.18607,-5.1563 -4.42325,-11.9063 -4.97152,-15 -1.20793,-6.8161 -23.86794,-75.4745 -26.74728,-81.0426 -1.12554,-2.1766 -2.56745,-3.9574 -3.20422,-3.9574 -1.61902,0 -10.74978,-19.7288 -15.12541,-32.6813 -3.80919,-11.2759 -8.61892,-39.5682 -9.11255,-53.6029 -0.24006,-6.8254 -0.92556,-9.0873 -4.19346,-13.837 -6.3308,-9.2015 -13.62617,-24.4988 -19.0039,-39.8483 -2.76409,-7.8894 -6.17309,-15.7644 -7.57553,-17.5 -1.40247,-1.7355 -3.48787,-4.9781 -4.63423,-7.2057 l -2.0843,-4.0503 -8.83682,0.9163 c -10.72523,1.1121 -16.19818,0.984 -21.96183,-0.5141 -3.93685,-1.0233 -4.60357,-1.855 -6.6573,-8.3049 -1.92915,-6.0586 -3.01127,-7.5396 -6.99335,-9.5711 -7.05709,-3.6003 -12.29415,-10.3875 -18.85307,-24.4337 -3.24944,-6.9588 -7.89909,-15.2607 -10.33257,-18.4487 -2.43346,-3.188 -5.91977,-8.95719 -7.74736,-12.82037 -3.49272,-7.38302 -11.4003,-29.75459 -15.01271,-42.47293 -2.98249,-10.50053 -7.01982,-19.54461 -8.50398,-19.04989 -1.29168,0.43057 -13.7272,35.08373 -22.08757,61.54989 -2.60608,8.25 -7.34243,20.47 -10.52521,27.1555 C 382.6041,1029.466 380,1035.751 380,1036.7471 c 0,0.9961 -1.42132,3.5002 -3.1585,5.5648 -1.73717,2.0645 -3.88767,5.8598 -4.77889,8.434 -2.19031,6.3265 -7.80402,9.2541 -17.74518,9.2541 -6.4279,0 -21.4017,-3.0003 -28.42544,-5.6955 -3.1827,-1.2213 -8.48436,17.3593 -8.75389,30.6795 -0.19447,9.6111 0.29656,12.0928 5.07349,25.641 2.90885,8.25 7.07252,21.75 9.25262,30 3.89824,14.7518 3.96978,15.5378 4.32334,47.5 0.36215,32.7381 4.17904,78.2875 7.0094,83.6477 0.69635,1.3189 1.76936,9.1529 2.38446,17.4092 0.61509,8.2561 2.26952,20.3959 3.67649,26.9771 1.40698,6.5812 3.26304,15.291 4.12459,19.355 1.11122,5.2416 2.2677,7.654 3.97949,8.3007 5.68307,2.1475 12.71681,14.6638 14.95995,26.6208 0.49481,2.6376 2.77806,7.915 5.07387,11.7276 2.29581,3.8126 4.82583,8.9638 5.62224,11.4469 0.79641,2.4832 2.14911,5.3587 3.006,6.39 0.85689,1.0312 2.27357,4.9341 3.14819,8.6732 0.87461,3.739 2.689,8.6605 4.03197,10.9367 2.41583,4.0945 2.41609,4.1882 0.0255,8.8267 -3.11004,6.0346 -10.6339,11.691 -27.89664,20.9726 -7.63688,4.1062 -18.76163,11.039 -24.72166,15.4063 -15.06291,11.0376 -22.95941,14.7146 -40.57712,18.8946 -18.55133,4.4017 -31.79052,6.2899 -44.09974,6.2899 -7.81046,0 -9.70781,-0.4233 -11.95044,-2.6659 -2.4426,-2.4426 -2.59547,-3.5101 -1.82529,-12.7454 1.03788,-12.4449 2.87725,-15.7008 16.36275,-28.9637 5.5923,-5.5 12.26648,-13.2286 14.83149,-17.1748 2.565,-3.9461 5.76239,-7.7627 7.10529,-8.4815 1.34291,-0.7186 2.44165,-1.863 2.44165,-2.5428 0,-0.6799 1.9299,-4.0418 4.28865,-7.4708 2.35876,-3.429 4.98526,-9.3474 5.83669,-13.1519 0.85141,-3.8046 2.01526,-7.2061 2.58633,-7.5591 1.94079,-1.1994 1.04748,-7.5406 -2.1819,-15.4881 -2.85452,-7.025 -2.99647,-8.0503 -1.25,-9.0276 1.42447,-0.7972 1.97023,-3.024 1.97023,-8.039 0,-6.1267 0.44685,-7.3538 3.82787,-10.5122 l 3.82789,-3.5757 -7.6342,-25.654 c -4.19881,-14.1098 -7.95137,-28.617 -8.33901,-32.2383 -1.33525,-12.4736 -10.16584,-40.8753 -14.85915,-47.7913 -3.64456,-5.3706 -15.62649,-42.3725 -19.8478,-61.2929 -3.46965,-15.5514 -5.3895,-34.8298 -6.28634,-63.125 -0.65646,-20.7114 -1.82205,-29.7616 -5.87614,-45.625 -2.63005,-10.2913 -2.51218,-20.5818 0.29584,-25.8286 1.58541,-2.9624 -0.75504,-29.4376 -2.82255,-31.9288 -2.0449,-2.4639 -5.52079,-1.9349 -7.57056,1.1522 l -1.83909,2.7698 -1.44155,-2.6935 c -1.05841,-1.9777 -1.08771,-4.3434 -0.11025,-8.9013 0.96396,-4.4948 0.93719,-8.05128 -0.097,-12.88878 -3.15137,-14.74038 -3.10055,-15.35968 1.69625,-20.66917 4.62375,-5.11795 5.15044,-7.6213 7.83966,-37.26185 3.05957,-33.72229 2.29248,-30.34751 10.41157,-45.80555 6.12827,-11.66771 8.53686,-15.01649 13.12811,-18.2527 6.88391,-4.85224 7.73244,-7.78926 5.6937,-19.70785 -1.45096,-8.4824 -1.38526,-9.51663 0.84749,-13.33961 1.33121,-2.27937 2.95136,-4.15902 3.60032,-4.177 0.64896,-0.018 3.79605,-1.58564 6.99351,-3.48365 5.90314,-3.5041 8.07992,-7.40152 6.47289,-11.58937 -0.56616,-1.4754 -0.36854,-1.89028 0.6118,-1.28441 3.15775,1.9516 -0.16352,-2.98581 -3.95252,-5.87582 -5.20145,-3.96735 -7.07073,-11.14981 -7.07073,-27.16853 0,-10.92685 0.40402,-13.32092 3.1688,-18.77695 4.11639,-8.12329 9.87625,-14.4014 21.09886,-22.99722 7.35688,-5.63492 9.41758,-7.98239 10.75847,-12.25564 0.91221,-2.90714 2.12326,-5.82008 2.69122,-6.4732 1.54335,-1.77479 1.24721,-6.05945 -0.61146,-8.84686 -2.00435,-3.00588 -4.60589,-11.75606 -4.60589,-15.49174 0,-1.50484 -1.24425,-5.37707 -2.765,-8.60498 -2.38724,-5.06707 -2.77944,-8.08909 -2.87063,-22.11892 -0.1,-15.38386 -0.31907,-16.74969 -4.11057,-25.625 -2.20274,-5.15625 -4.84846,-10.86804 -5.87939,-12.69286 -2.41333,-4.27181 -2.38157,-13.33736 0.0886,-25.28183 1.69421,-8.19235 1.76052,-12.10461 0.48434,-28.57121 -2.28695,-29.50837 -2.50084,-59.36222 -0.46857,-65.40084 1.44694,-4.29939 1.4381,-7.5354 -0.058,-21.25 C 287.20005,476.65523 285.79223,461.5 285.04224,451.875 281.35644,404.57312 278.37128,397.8 250.53376,373.57777 233.74516,358.96952 225.54442,348.98939 210.61705,325 c -4.06406,-6.53125 -10.93653,-16.09375 -15.27215,-21.25 -4.95513,-5.893 -10.25894,-14.2498 -14.28008,-22.5 -4.57482,-9.3862 -8.43868,-15.26146 -13.56401,-20.625 -7.48835,-7.8364 -25.86824,-35.33435 -29.82125,-44.61529 C 136.41812,213.04812 131.40651,198.25 126.54265,183.125 116.77871,152.76242 108.37621,119.1771 105.60508,99.436205 104.61321,92.370312 103.47402,85.735266 103.07355,84.691658 102.11291,82.188273 94.328086,75.991757 88.099792,72.772939 85.363656,71.358886 80.3125,67.301716 76.875,63.757005 68.861266,55.49333 67.213153,54.614755 63.175849,56.454274 c -3.192308,1.454512 -3.19849,1.485765 -0.804748,4.06825 5.927472,6.394844 2.418143,14.317917 -3.835175,8.658741 -2.127079,-1.924979 -2.444773,-1.924979 -4.571852,0 -3.523889,3.189076 -5.141172,2.521562 -7.859144,-3.243765 -1.377473,-2.921875 -3.829864,-7.153726 -5.449759,-9.404114 -1.619895,-2.250387 -3.303852,-6.469137 -3.742127,-9.375 C 35.112171,35.218198 35.137124,35.262043 27.917306,31.351623 L 21.013262,27.612234 14.46806,31.306116 C 7.4311669,35.277494 3.8785161,35.878516 1.5,33.5 -2.5822193,29.417781 0.0276178,26.45696 17.68453,15.138897 29.153757,7.7871344 30.413071,7.2962777 43.411608,5.11097 50.928759,3.84719 58.261866,2.1802209 59.707401,1.4065941 c 5.137399,-2.7494523 8.941053,-1.63839604 15.679925,4.5801432 3.56822,3.2927053 10.591045,9.2435977 15.606277,13.2242067 5.015231,3.980607 12.890227,10.9897 17.499997,15.575762 4.60977,4.586062 9.94712,9.347984 11.86078,10.582049 1.91365,1.234066 3.32054,2.935418 3.12641,3.780781 -0.19413,0.845365 1.46885,4.37607 3.6955,7.846012 2.22666,3.469941 4.7044,8.23734 5.5061,10.594218 0.8017,2.356879 3.0617,6.340385 5.02222,8.852238 1.96053,2.511851 7.24884,12.355601 11.7518,21.875 11.50926,24.330906 11.69013,24.648646 29.06251,51.057996 18.71234,28.44632 22.1224,34.68641 34.58964,63.29579 8.86686,20.34733 10.37871,22.94751 19.62371,33.75 5.50919,6.43731 14.25528,17.61046 19.43575,24.82921 12.20159,17.00232 22.63828,30 24.08897,30 7.02761,0 41.3154,20.84419 55.16418,33.53535 l 7.04618,6.45718 0.72487,-4.05877 c 0.39869,-2.23231 0.77758,-10.80876 0.84197,-19.05876 0.0836,-10.71665 0.68663,-16.34195 2.11166,-19.69941 1.5925,-3.75208 1.70325,-5.33883 0.54936,-7.87131 -0.79486,-1.74456 -1.44521,-5.91485 -1.44521,-9.26736 0,-5.02256 0.75792,-7.08836 4.30604,-11.73666 2.36832,-3.10266 5.54304,-8.51668 7.05492,-12.03116 3.30512,-7.68293 14.7228,-18.45212 24.88904,-23.4754 5.88596,-2.90833 8.78017,-3.46248 20.11817,-3.85199 21.00914,-0.72176 39.09574,3.96475 53.94818,13.97879 14.25373,9.61037 20.75015,22.69919 21.86366,44.0503 0.71857,13.77812 -0.28384,18.6758 -5.7367,28.0292 -3.4774,5.96485 -10.01908,20.24628 -14.02794,30.625 -2.90495,7.52074 -3.28083,23.63396 -0.69566,29.82114 3.62099,8.66625 18.70616,16.81838 23.3481,12.6175 2.55739,-2.31442 3.59423,-2.28072 6.34219,0.20616 2.03302,1.83986 11.19679,4.89909 24.215,8.08392 2.75,0.67278 7.25,2.283 10,3.57829 2.75,1.29529 6.51652,2.93959 8.37006,3.654 2.49819,0.96289 3.58933,2.46765 4.21754,5.81633 0.99649,5.31173 6.08001,9.19875 16.89795,12.92066 10.39543,3.57655 13.88292,5.67611 19.34061,11.64352 7.26128,7.93945 12.59763,16.88399 17.11695,28.69064 3.85956,10.08304 4.01411,11.20304 4.20428,30.46784 0.23492,23.80144 1.01785,31.14545 4.99495,46.85425 2.04476,8.07639 3.42995,18.63306 4.3465,33.125 1.06372,16.81914 1.80981,21.92983 3.56496,24.41993 3.65797,5.1897 3.83043,7.19627 2.57616,29.97582 -1.37076,24.89525 -3.80716,38.43315 -7.42257,41.2437 -1.61857,1.25825 -4.54449,9.12595 -8.83474,23.7563 -10.19304,34.7597 -13.48314,44.39825 -22.12306,64.81086 l -8.12068,19.18587 10.04714,28.93913 c 12.15691,35.016 12.37329,35.81414 9.70946,35.81414 -3.00021,0 -2.47405,3.35181 2.30494,14.68322 2.3735,5.62778 4.9478,12.58072 5.72069,15.45097 0.77287,2.87025 2.68102,7.24862 4.24032,9.72972 3.20067,5.09278 5.66633,12.23971 9.49455,27.52075 1.44809,5.78031 4.3144,14.21781 6.36958,18.75 2.05516,4.53219 4.23527,10.20909 4.84467,12.61534 0.6094,2.40625 3.37689,10.84375 6.14999,18.75 7.66374,21.84976 8.26605,25.48524 6.39039,38.5711 -1.42794,9.9623 -1.38079,11.4812 0.43685,14.0762 1.12063,1.5999 2.03751,3.9607 2.03751,5.2462 0,1.2854 1.125,3.7674 2.5,5.5154 1.375,1.748 2.5,5.0676 2.5,7.3768 0,3.4361 -0.8764,4.8335 -4.8253,7.6941 -2.65392,1.9224 -7.99099,4.5714 -11.86014,5.8866 l -7.03483,2.3912 0.73138,8.8087 c 0.40227,4.8448 3.01009,16.965 5.79517,26.9337 2.78507,9.9688 5.76452,20.6892 6.621,23.8232 0.85647,3.134 4.07811,10.7277 7.15918,16.875 20.16112,40.2248 29.58383,72.8039 32.15517,111.1768 2.69236,40.179 6.91283,73.9081 9.64348,77.0686 1.02805,1.19 2.23914,6.7655 2.85095,13.125 0.89248,9.277 2.68787,19.036 6.9209,37.6189 0.41225,1.8097 1.56754,2.8125 3.24034,2.8125 3.85186,0 9.74234,6.9945 10.64514,12.6404 0.43591,2.7261 1.48332,4.8596 2.38567,4.8596 1.10289,0 1.86513,3.0455 2.42462,9.6875 0.44881,5.3281 1.3177,11.0938 1.93087,12.8125 0.61316,1.7188 1.48738,5.2655 1.94269,7.8815 1.2397,7.123 9.87337,17.8205 24.99722,30.9727 18.0198,15.6706 21.64143,19.4446 22.47498,23.4202 0.38639,1.8429 1.23104,4.3274 1.87701,5.5211 0.64598,1.1939 1.1745,6.9595 1.1745,12.8125 l 0,10.642 -22.29166,0 c -12.26043,0 -22.59055,-0.2989 -22.95585,-0.6641 z M 524.50389,707.26547 c 0.95873,-5.02726 1.74382,-9.50193 1.74463,-9.94372 10e-4,-1.01669 -11.14081,-0.37604 -14.06102,0.80844 -2.44594,0.99211 -2.83309,2.57327 -0.91964,3.75585 0.69733,0.43097 2.45036,3.13605 3.89564,6.01127 2.86094,5.69154 6.16377,9.94209 7.04254,9.06333 0.30507,-0.30509 1.33911,-4.66791 2.29785,-9.69516 z"
       id="path3424"
       inkscape:connector-curvature="0" />
    <path
       style="fill:#50abec"
       d="m 703.125,1495.0889 c -1.375,-0.5514 -6.4375,-1.4087 -11.25,-1.9049 -10.8204,-1.116 -21.61479,-3.4727 -30.625,-6.6866 -3.78125,-1.3488 -10.8125,-3.3978 -15.625,-4.5533 -10.96885,-2.6336 -18.62405,-6.2368 -21.02031,-9.894 -3.84057,-5.8615 -2.14693,-48.5575 2.9106,-73.3751 1.36659,-6.706 2.48471,-15.56 2.48471,-19.6755 0,-9.2272 -5.88375,-33.023 -11.10901,-44.9282 C 616.75094,1329.1954 615,1323.9665 615,1322.4515 c 0,-1.515 -3.62275,-13.5145 -8.05055,-26.6655 -4.4278,-13.151 -10.12141,-30.64 -12.65248,-38.8644 -3.28151,-10.6629 -5.55335,-15.8635 -7.91786,-18.125 -3.80487,-3.6392 -12.59245,-22.0359 -17.05279,-35.6998 -3.43193,-10.5134 -9.45733,-49.4315 -8.45615,-54.6184 0.48814,-2.5289 -0.61762,-5.4126 -4.32857,-11.2885 -7.55159,-11.957 -13.39876,-24.184 -17.80744,-37.2368 -4.13431,-12.2405 -6.75077,-17.7058 -11.82515,-24.7005 -1.64484,-2.2673 -3.18662,-4.7104 -3.42619,-5.4291 -0.30095,-0.9029 -4.17106,-0.8607 -12.52316,0.1365 -8.57595,1.024 -12.80776,1.0579 -14.56646,0.1167 -1.36336,-0.7297 -3.62104,-1.3267 -5.01704,-1.3267 -2.95806,0 -4.54996,-2.5325 -5.80834,-9.2401 -0.67025,-3.5728 -1.87117,-5.3449 -4.64347,-6.852 -9.22023,-5.0125 -14.77014,-12.2647 -22.12229,-28.9079 -1.67036,-3.7813 -4.47479,-8.8345 -6.23205,-11.2295 -4.98232,-6.7905 -10.18091,-15.16766 -11.59724,-18.68821 -3.07717,-7.64895 -11.25875,-31.23494 -12.82625,-36.97573 -2.00371,-7.33839 -6.3929,-19.17592 -8.10022,-21.84611 -1.95688,-3.06048 -3.24791,-0.51979 -10.15755,19.98955 -3.59011,10.65625 -9.45805,28.09375 -13.03986,38.75 -3.5818,10.6562 -8.83809,24.1538 -11.68064,29.9946 -2.84254,5.8409 -5.16825,11.5291 -5.16825,12.6407 0,1.1115 -1.65655,4.1054 -3.68123,6.6531 -2.02467,2.5478 -4.28563,6.4637 -5.02436,8.702 -2.75786,8.3564 -16.08006,10.5244 -34.49649,5.6137 -5.45761,-1.4553 -10.72863,-2.7209 -11.71338,-2.8125 -2.42209,-0.2254 -7.01034,14.9476 -8.11779,26.8448 -0.92458,9.9327 0.0775,15.2056 6.11216,32.1615 1.79555,5.0451 5.30916,16.5764 7.80803,25.625 l 4.54337,16.4521 0.28261,32.5 c 0.28789,33.1055 4.29214,80.5652 7.09252,84.0629 0.68825,0.8596 1.71297,8.2062 2.27717,16.326 0.5642,8.1196 2.22003,20.3537 3.67963,27.187 1.45958,6.8332 3.33435,15.6297 4.16612,19.5477 1.26475,5.9575 2.22313,7.5945 5.85448,10 5.16193,3.4194 10.50485,13.5189 12.58205,23.7833 0.79658,3.9364 2.76873,8.9466 4.38253,11.1341 1.6138,2.1874 4.405,7.8261 6.20267,12.5305 1.79766,4.7044 3.69228,8.5535 4.21027,8.5535 0.518,0 1.66349,3.2344 2.54553,7.1875 0.88203,3.9531 2.3778,8.297 3.32391,9.6531 2.49984,3.5832 2.10962,9.1015 -0.94713,13.3944 -3.04186,4.2719 -13.60728,11.282 -31.70008,21.0328 -6.87084,3.703 -16.43334,9.7955 -21.25,13.5388 -4.81668,3.7435 -12.18915,8.4259 -16.38329,10.4053 -14.2072,6.705 -47.57794,13.5381 -66.11608,13.5381 -7.91473,0 -9.80095,-0.4177 -12.05235,-2.6691 -2.41805,-2.418 -2.59455,-3.5514 -1.87632,-12.0479 1.01631,-12.023 4.48284,-18.9695 13.16552,-26.3821 6.87888,-5.8726 20.12993,-21.5061 20.12993,-23.749 0,-0.6774 1.6875,-2.4333 3.75,-3.9019 2.0625,-1.4686 3.75,-3.2597 3.75,-3.9801 0,-0.7205 1.93141,-3.941 4.29202,-7.1569 2.3606,-3.2157 4.92917,-8.6349 5.70792,-12.0424 0.77875,-3.4076 1.94108,-7.1723 2.58297,-8.3661 1.86808,-3.4742 1.3805,-7.4359 -1.9662,-15.9756 -2.71299,-6.9228 -2.88066,-8.1366 -1.25,-9.0491 1.32484,-0.7415 1.88329,-3.1108 1.88329,-7.9904 0,-6.1006 0.45339,-7.3599 3.76309,-10.4516 l 3.7631,-3.5153 -1.78343,-6.6737 c -0.98087,-3.6705 -3.80431,-13.4238 -6.2743,-21.6738 -4.60076,-15.367 -7.06507,-25.5431 -9.38389,-38.75 -2.30257,-13.1144 -9.50673,-33.8736 -14.10696,-40.65 -3.06846,-4.5201 -15.63074,-44.3938 -19.09209,-60.6 -3.54996,-16.621 -5.31231,-34.2216 -6.25816,-62.5 -0.68752,-20.5552 -1.66051,-27.9916 -6.32319,-48.327 -2.08071,-9.0746 -2.08366,-10.0388 -0.0561,-18.381 1.85427,-7.6292 1.95104,-10.5195 0.72515,-21.6602 -0.77808,-7.071 -2.00298,-13.5652 -2.72201,-14.4315 -2.01272,-2.4252 -5.49893,-1.8726 -7.53538,1.1945 l -1.83909,2.7698 -1.41993,-2.6531 c -1.04707,-1.9565 -1.0603,-4.444 -0.0504,-9.4726 1.04041,-5.18061 0.99226,-8.28762 -0.20037,-12.92914 -2.81649,-10.96118 -2.27627,-16.13165 2.16912,-20.76086 4.28874,-4.46607 5.07513,-8.80135 7.88583,-43.4739 1.71981,-21.21545 2.3055,-24.29395 5.87472,-30.87882 1.78758,-3.2979 5.06506,-9.65243 7.28331,-14.12118 2.95867,-5.96035 5.56165,-9.19356 9.77029,-12.13581 6.9954,-4.89048 7.8554,-7.78571 5.82991,-19.62678 -1.36055,-7.95383 -1.29953,-9.55295 0.49703,-13.02711 1.12637,-2.17816 2.34795,-3.9603 2.71462,-3.9603 0.36667,0 0.23289,0.70313 -0.29728,1.5625 -0.53018,0.85938 1.26475,-0.17217 3.98872,-2.29232 2.72398,-2.12015 5.9455,-4.21512 7.15895,-4.65547 2.45951,-0.89255 5.10221,-6.68211 4.16498,-9.12451 -0.33319,-0.86827 0.0657,-1.86205 0.88648,-2.2084 0.8988,-0.37927 -0.46421,-2.35301 -3.42721,-4.96287 -6.3692,-5.61007 -8.16249,-11.75404 -8.18654,-28.04798 -0.0166,-11.30252 0.36352,-13.60886 3.14983,-19.10739 4.11639,-8.12328 9.87625,-14.4014 21.09886,-22.99722 7.35688,-5.63491 9.41758,-7.98239 10.75846,-12.25564 0.91222,-2.90714 2.12327,-5.82007 2.69123,-6.4732 1.58372,-1.82121 1.2272,-7.13427 -0.6267,-9.33907 -1.92105,-2.28467 -4.59065,-11.00734 -4.59065,-14.99953 0,-1.50484 -1.25408,-5.37707 -2.78684,-8.60498 -2.47212,-5.20616 -2.75511,-7.58718 -2.50591,-21.08447 0.27445,-14.86524 0.18017,-15.45522 -4.09449,-25.625 -2.40647,-5.7252 -5.21631,-11.90249 -6.24409,-13.72731 -2.39999,-4.26125 -2.36474,-11.33997 0.12263,-24.61411 1.727,-9.2164 1.79103,-13.12798 0.48242,-29.47242 -1.78918,-22.34705 -2.54064,-60.90952 -1.17043,-60.06268 0.52997,0.32753 0.68422,-0.47275 0.34277,-1.77842 -0.34143,-1.30566 -0.01,-3.51565 0.73705,-4.91108 0.99239,-1.85429 0.87535,-7.18753 -0.43482,-19.81529 -0.98598,-9.50298 -2.41846,-25.15314 -3.1833,-34.77814 -1.81043,-22.78297 -4.1293,-37.06811 -7.43954,-45.83029 -2.80809,-7.433 -11.27575,-16.84991 -35.22135,-39.16971 -11.69146,-10.89768 -17.21382,-17.94994 -30.12231,-38.46731 -4.66013,-7.40703 -12.39701,-18.31815 -17.1931,-24.24693 -5.18881,-6.41426 -11.07038,-15.64041 -14.52371,-22.78268 C 176.60057,272.03221 172.28773,265.48016 167.26579,260 159.09392,251.08249 146.05498,231.99485 140.16582,220.32849 130.82342,201.82131 108.24718,122.67548 105.66399,99.375 104.24587,86.583466 102.94987,83.405452 97.187249,78.588496 94.232449,76.11859 90.458378,73.667217 88.800424,73.141004 87.142469,72.61479 81.70097,68.317794 76.708202,63.592125 71.715435,58.866456 67.346311,55 66.999037,55 c -0.347272,0 -2.073386,0.65701 -3.835807,1.460024 -3.179618,1.448731 -3.185745,1.480151 -0.792129,4.0625 5.927472,6.394844 2.418143,14.317917 -3.835175,8.658741 -2.127079,-1.924979 -2.444773,-1.924979 -4.571852,0 C 52.706815,70.31907 51.03376,71.25 50.246174,71.25 48.610129,71.25 45,64.841357 45,61.937075 45,60.871684 44.429232,60 43.731627,60 41.453761,60 37.704788,52.284066 36.812481,45.759391 35.492707,36.109006 34.559194,34.670422 27.147987,30.866009 l -6.835706,-3.508992 -6.025866,3.821492 C 7.6947445,35.358822 3.6256866,35.987527 1.2998362,33.185049 -2.1637005,29.011742 0.79262239,25.940499 20.269919,13.477545 27.797321,8.6609804 31.194587,7.3169719 38.805776,6.1444891 43.93135,5.3549086 51.868571,3.6493884 56.444046,2.3544441 61.019522,1.0594998 65.693819,0 66.831372,0 67.968926,0 71.819105,2.6940317 75.387326,5.9867373 78.955546,9.2794426 85.8125,15.100615 90.625,18.922675 99.049771,25.61358 124.77571,50 123.40936,50 c -0.3664,0 1.81035,4.345754 4.83723,9.657231 3.02687,5.311478 5.50341,10.091425 5.50341,10.622107 0,0.530681 1.90362,3.638052 4.23027,6.905268 4.77003,6.698341 9.9819,16.76481 16.8947,32.631234 2.59019,5.94504 8.36582,16.43416 12.83474,23.30916 4.46893,6.875 12.88994,19.8125 18.71335,28.75 9.4209,14.45873 15.438,25.51045 21.43766,39.375 12.22072,28.24071 15.25234,34.01439 21.77329,41.46672 3.80594,4.34955 14.98979,18.69209 24.85298,31.8723 9.86318,13.18022 18.65418,24.41718 19.53553,24.97102 0.88137,0.55383 5.82123,2.73351 10.97748,4.84372 10.39196,4.25294 39.99055,24.00658 48.75,32.53501 l 5.625,5.47664 0.19674,-4.0202 c 0.10825,-2.21111 0.43028,-11.61396 0.71575,-20.89521 0.31625,-10.28239 1.15504,-18.17988 2.14701,-20.21506 1.25583,-2.5765 1.30652,-4.26225 0.22175,-7.37403 -2.66786,-7.65302 -1.79045,-14.21246 2.69235,-20.12766 2.25424,-2.97454 5.66083,-8.62263 7.57019,-12.5513 5.24112,-10.78401 19.58111,-22.55116 31.13385,-25.5479 8.47745,-2.19903 24.17417,-2.14253 36.04881,0.12975 34.52739,6.60699 51.36819,24.19142 53.24551,55.59666 0.80099,13.39945 -1.05427,22.12706 -6.4306,30.25124 -2.87252,4.34067 -5.48481,10.09094 -12.66919,27.88781 -3.9623,9.81531 -4.27152,26.72028 -0.59892,32.7432 3.01158,4.93888 9.32931,9.69998 15.49262,11.67539 4.17645,1.3386 5.07443,1.24829 7.26068,-0.73025 2.02719,-1.83458 2.89107,-1.9733 4.60912,-0.7401 4.81194,3.454 10.63062,5.47646 26.48933,9.20721 3.09375,0.7278 6.46875,2.05209 7.5,2.94288 1.03125,0.89077 4.24813,2.25138 7.14863,3.02358 4.63682,1.23447 5.45326,2.00359 6.76135,6.3696 1.94458,6.49045 7.45027,10.59367 19.57975,14.59213 8.26813,2.72559 10.62587,4.2003 16.61683,10.39346 8.32305,8.60395 16.21605,23.15388 19.95639,36.78751 2.25281,8.2116 2.63273,12.55072 2.34686,26.80427 -0.35906,17.90305 0.9015,29.25508 5.08093,45.75661 1.4848,5.86235 3.10055,18.5339 3.905,30.625 1.19577,17.97275 1.75322,21.27587 4.33491,25.68647 2.95345,5.0457 2.95885,5.12939 1.73198,26.875 -0.67689,11.99744 -1.53849,23.50103 -1.91469,25.56353 -1.7984,9.85979 -3.6162,15.16584 -5.80165,16.93471 -1.32446,1.072 -3.77538,6.64592 -5.49638,12.5 -1.70831,5.81092 -5.59493,19.10544 -8.63695,29.54339 -5.17363,17.75213 -8.56532,27.00504 -20.0106,54.59121 l -4.59257,11.06932 10.00371,28.93068 c 12.70051,36.72983 12.06425,34.41245 9.69769,35.32058 -2.42531,0.93068 -2.51522,4.53263 -0.22423,8.98469 0.95533,1.85648 3.50302,8.43792 5.66152,14.62542 2.1585,6.1875 5.56038,14.35637 7.55972,18.15305 1.99935,3.79667 5.36974,13.53823 7.48976,21.64787 2.12002,8.10967 5.55889,18.50329 7.64194,23.09697 2.08305,4.59366 4.26965,10.32086 4.85912,12.72711 0.58948,2.40625 3.29643,10.84375 6.01545,18.75 8.2247,23.91541 8.40657,24.96786 6.59465,38.16505 -1.4209,10.34915 -1.37448,11.94405 0.42225,14.50925 1.11025,1.5851 2.03114,4.0224 2.04643,5.4163 0.0153,1.3939 1.12777,3.9406 2.4722,5.6594 1.34442,1.7188 2.45691,4.9496 2.4722,7.1797 0.0225,3.2843 -0.88896,4.7187 -4.7975,7.5501 -2.65393,1.9224 -8.01019,4.578 -11.90281,5.9011 l -7.07752,2.4057 0.77394,9.4192 c 0.42568,5.1806 3.04196,17.2942 5.81398,26.9192 2.77201,9.625 5.77168,20.1419 6.66593,23.3709 0.89424,3.229 4.97482,12.7915 9.06793,21.25 13.45037,27.7955 17.94502,40.1741 24.41981,67.2541 3.32908,13.9235 4.66055,23.0509 5.74386,39.375 2.56958,38.7204 7.00364,73.9416 9.70183,77.0649 1.03628,1.1995 2.2647,6.9619 2.93125,13.75 0.63108,6.4269 2.46126,17.8726 4.06708,25.4351 2.56195,12.0653 3.25227,13.7988 5.63424,14.148 4.16392,0.6106 10.03463,7.257 11.00854,12.4631 0.47729,2.5514 1.59952,5.2014 2.49383,5.8889 0.89431,0.6875 2.1581,5.75 2.80842,11.25 2.76193,23.3587 6.44661,30.0471 26.21428,47.5842 20.14787,17.8744 23.90187,21.7228 24.64693,25.2663 0.39314,1.8697 1.2433,4.3762 1.88928,5.57 0.64598,1.1939 1.1745,6.9595 1.1745,12.8125 l 0,10.642 -22.1875,-0.079 c -12.20313,-0.044 -23.3125,-0.5303 -24.6875,-1.0818 z M 524.50389,707.26547 c 0.95873,-5.02726 1.74382,-9.50193 1.74463,-9.94372 10e-4,-1.01669 -11.14081,-0.37604 -14.06102,0.80844 -1.20313,0.48801 -2.1875,1.0402 -2.1875,1.2271 0,0.64661 8.51667,14.48041 10.05845,16.33813 2.1395,2.57794 2.46321,1.96409 4.44544,-8.42995 z"
       id="path3422"
       inkscape:connector-curvature="0" />
    <path
       style="fill:#2b9bec"
       d="m 703.125,1495.0871 c -1.375,-0.5525 -8.08406,-1.6588 -14.90903,-2.4586 -6.82497,-0.7999 -17.23122,-3.045 -23.125,-4.9891 -5.89378,-1.9443 -14.65347,-4.4938 -19.46597,-5.6656 -11.00698,-2.68 -18.63315,-6.2804 -21.02031,-9.9237 -3.90587,-5.9611 -2.19052,-47.4423 3.03115,-73.3001 4.04738,-20.0427 1.74792,-39.3407 -7.22379,-60.625 -1.73878,-4.125 -3.70508,-9.75 -4.36955,-12.5 -0.66448,-2.75 -4.79538,-15.9687 -9.17976,-29.375 -4.38439,-13.4062 -10.02917,-31.067 -12.54395,-39.2461 -2.97784,-9.6851 -5.62697,-15.9257 -7.59655,-17.8953 -11.68179,-11.6818 -25.52085,-59.0417 -25.67324,-87.8586 -0.0345,-6.5255 -0.61566,-8.8841 -2.95209,-11.981 -5.66435,-7.508 -15.5173,-27.5522 -19.30309,-39.269 -2.1103,-6.5312 -5.20418,-14.125 -6.87531,-16.875 -1.67111,-2.75 -4.2201,-7.1407 -5.66441,-9.7572 l -2.62601,-4.7572 -9.00154,0.9902 c -10.84029,1.1925 -16.32558,1.0873 -22.08157,-0.4234 -3.88816,-1.0205 -4.53152,-1.8328 -6.30448,-7.9602 -1.67431,-5.7865 -2.72624,-7.2417 -6.91998,-9.5731 -8.23772,-4.5796 -13.11108,-11.316 -20.63177,-28.5191 -1.50278,-3.4375 -5.12079,-9.625 -8.04001,-13.75 -7.59105,-10.72648 -10.75913,-17.63352 -17.4869,-38.125 -9.29209,-28.30189 -12.67832,-36.875 -14.56493,-36.875 -1.07005,0 -3.29891,4.73212 -5.88757,12.5 -2.29113,6.875 -6.86579,20.09375 -10.16592,29.375 -3.30013,9.28125 -6.9534,20.25 -8.11836,24.375 -2.04962,7.2575 -12.03931,30.4418 -16.96599,39.375 -1.32705,2.4063 -3.6329,6.9831 -5.12412,10.1707 -4.8713,10.4129 -15.954,12.4495 -36.695,6.7431 -6.16961,-1.6975 -11.59758,-2.6818 -12.06215,-2.1875 -1.75306,1.8652 -5.90644,18.7395 -6.68231,27.1487 -0.88789,9.6232 0.21455,15.1535 6.65793,33.3988 2.11693,5.9944 5.66229,17.8069 7.87858,26.25 3.98511,15.1817 4.03236,15.7033 4.27801,47.2262 0.25006,32.0877 4.27635,79.9122 7.01654,83.3429 0.64485,0.8072 1.70252,8.4706 2.35039,17.0297 1.24168,16.404 1.82295,20.0312 6.49261,40.5139 2.6768,11.7414 3.24955,12.9908 7.16482,15.6293 5.57888,3.7596 7.94217,8.0447 11.80352,21.4023 1.75575,6.0738 4.27796,12.5678 5.60491,14.4314 1.32695,1.8635 3.92247,7.1598 5.76785,11.7694 1.84536,4.6096 3.7847,8.3811 4.30965,8.3811 0.52494,0 1.59991,3.2809 2.38882,7.2909 0.78892,4.0099 2.25045,8.3692 3.24788,9.6875 2.57327,3.4007 2.31242,8.9216 -0.61583,13.034 -3.09628,4.3484 -15.60742,12.6504 -31.02852,20.5897 -6.41429,3.3023 -15.41429,8.9103 -20,12.4623 -10.57736,8.1929 -15.12171,10.8579 -25.21265,14.786 -11.73259,4.5671 -38.4215,9.732 -54.51046,10.5487 -13.25512,0.673 -14.01468,0.5758 -16.73163,-2.1412 -2.62307,-2.623 -2.78429,-3.5781 -2.05679,-12.1844 0.43415,-5.1361 1.60603,-10.8256 2.60417,-12.6434 0.99812,-1.8178 2.34623,-4.4301 2.99578,-5.8051 0.64957,-1.375 4.79147,-5.677 9.20423,-9.56 4.41276,-3.883 10.51992,-10.5915 13.57146,-14.9079 3.05153,-4.3163 7.09511,-9.2802 8.98574,-11.0308 1.89062,-1.7507 3.4375,-3.6855 3.4375,-4.2997 0,-0.6141 1.93141,-3.7477 4.29202,-6.9636 2.3606,-3.2157 4.92917,-8.6349 5.70792,-12.0424 0.77875,-3.4076 1.94108,-7.1723 2.58297,-8.3661 1.46628,-2.727 1.52154,-10.0645 0.0877,-11.642 -0.59367,-0.6531 -1.66114,-2.875 -2.37215,-4.9375 -0.71101,-2.0625 -1.69171,-4.7344 -2.17934,-5.9375 -0.62562,-1.5436 -0.29535,-2.1875 1.12215,-2.1875 1.6254,0 2.00874,-1.4547 2.00874,-7.6235 0,-6.9461 0.35131,-7.9516 3.9539,-11.317 l 3.9539,-3.6935 -7.82907,-26.2477 c -4.30599,-14.4363 -8.30845,-30.0155 -8.89437,-34.6205 -1.76568,-13.8774 -11.48596,-43.7416 -14.92993,-45.8701 -1.87688,-1.1599 -15.70523,-44.8757 -19.17803,-60.6277 -3.69676,-16.7678 -5.52251,-35.0198 -6.37692,-63.75 -0.59174,-19.8976 -2.00932,-30.4378 -6.36538,-47.3293 -1.77817,-6.8952 -1.83474,-8.9755 -0.4248,-15.625 2.40288,-11.3322 1.54554,-35.3603 -1.38779,-38.8948 -2.42396,-2.9207 -7.09998,-2.3978 -7.95978,0.89 -1.27514,4.8762 -3.91347,0.4503 -3.34922,-5.6184 0.88143,-9.48009 0.22484,-21.06559 -1.29782,-22.90029 -2.35579,-2.83856 -0.44809,-10.47332 3.69587,-14.79118 4.08628,-4.25775 4.55248,-7.00407 8.13474,-47.92058 1.42675,-16.2964 2.14141,-19.92636 4.92195,-25 1.78906,-3.2645 5.28001,-9.87295 7.75766,-14.68545 3.13234,-6.08416 6.18598,-9.99585 10.02284,-12.83921 6.60476,-4.89456 7.63653,-8.17544 5.75274,-18.2931 -0.96214,-5.16756 -1.00468,-7.7573 -0.13224,-8.05175 0.80999,-0.27336 0.68835,-1.17199 -0.32857,-2.42744 -1.3475,-1.66356 -1.32099,-1.81635 0.16025,-0.92339 1.34217,0.80912 1.57423,0.54703 0.95181,-1.07497 -0.5547,-1.44553 -0.35089,-1.85314 0.625,-1.25 1.00096,0.61862 1.16912,0.16796 0.54462,-1.45948 -0.49692,-1.29495 -0.51382,-1.96478 -0.0375,-1.48852 0.47628,0.47626 2.97758,-0.8065 5.55845,-2.8506 2.58089,-2.0441 5.30173,-3.71654 6.04632,-3.71654 1.89361,0 4.71777,-4.86707 5.5932,-9.63914 0.75227,-4.10075 -0.69262,-6.57455 -5.2713,-9.02498 -6.30473,-3.37419 -8.7368,-31.65472 -3.75348,-43.64593 1.49844,-3.60562 3.21781,-6.04684 3.94314,-5.59856 0.78474,0.485 0.90165,0.17276 0.2999,-0.8009 -1.15233,-1.86449 13.60091,-16.35998 21.66906,-21.29049 2.81253,-1.71875 5.1288,-3.81209 5.14729,-4.65186 0.0185,-0.83976 1.34641,-4.49601 2.95094,-8.125 3.01222,-6.81279 3.01095,-8.90378 -0.007,-12.37919 -0.97023,-1.11707 -1.64974,-2.52332 -1.51004,-3.125 0.1397,-0.60167 -0.39933,-2.67744 -1.19785,-4.61282 -0.79871,-1.93538 -1.45205,-5.19217 -1.45205,-7.23731 0,-2.04512 -1.24285,-6.08663 -2.76189,-8.98112 -2.47601,-4.71798 -2.73586,-6.89909 -2.51046,-21.07199 0.27061,-17.01516 -0.015,-18.13806 -9.36544,-36.8123 -3.50796,-7.00598 -3.55892,-12.18128 -0.2953,-29.99364 1.30159,-7.10391 1.3333,-12.81584 0.15963,-28.75 -2.2369,-30.3685 -2.68823,-54.36694 -1.00475,-53.42672 0.78244,0.437 0.71197,0.039 -0.15929,-0.89967 -1.79536,-1.93425 -2.1112,-4.17004 -0.44348,-3.13933 1.22055,0.75435 3.10018,-2.99151 2.0354,-4.05629 -0.35993,-0.35993 -0.65442,0.0956 -0.65442,1.01224 0,0.91666 -0.29699,1.36967 -0.65998,1.00669 -0.36298,-0.36298 -0.10025,-2.13217 0.58388,-3.93153 0.87506,-2.30161 0.53737,-10.59886 -1.139,-27.98586 -1.31056,-13.59286 -2.74045,-29.7768 -3.17753,-35.9643 -1.0299,-14.57985 -3.56532,-28.41426 -6.78411,-37.01724 -3.03609,-8.11469 -13.57094,-20.12814 -29.53868,-33.68454 -10.70248,-9.08625 -22.03712,-22.48671 -31.12538,-36.79822 -12.08693,-19.03356 -15.67438,-24.24003 -20.69465,-30.03406 -7.17973,-8.28637 -13.05616,-17.61872 -17.08989,-27.14044 -2.17299,-5.1294 -6.14622,-10.89636 -11.53241,-16.73876 -8.16924,-8.86118 -21.87723,-29.04162 -27.98434,-41.1976 -4.51619,-8.98931 -20.1912,-57.23793 -23.92388,-73.63914 -1.72112,-7.5625 -4.54122,-19.375 -6.26689,-26.25 -1.72566,-6.875 -3.14423,-13.86017 -3.15236,-15.52261 -0.008,-1.66243 -0.65195,-6.724934 -1.43072,-11.249999 -1.23639,-7.184111 -2.06414,-8.829951 -6.527678,-12.979227 -2.811453,-2.61351 -7.431657,-5.778049 -10.267119,-7.032309 -2.835463,-1.25426 -7.292487,-4.837129 -9.904499,-7.961932 -2.612012,-3.124804 -6.558385,-6.655819 -8.769718,-7.8467 C 65.762787,54.842036 65.067075,54.811575 62.672,56.48915 60.002265,58.359105 60.002062,58.36399 62.499779,60.624392 64.050801,62.028455 65,64.474585 65,67.068735 c 0,4.680446 -1.637657,5.271184 -6.048393,2.181785 -2.61646,-1.83264 -3.039013,-1.83264 -5.064058,0 C 52.672379,70.350234 51.03376,71.25 50.246174,71.25 48.622368,71.25 45,64.849999 45,61.981055 45,60.939852 43.952148,59.527165 42.671437,58.841751 39.805019,57.30769 38.005175,52.884764 36.299287,43.182867 34.8061,34.690657 35.200322,35.205981 26.75444,30.705919 l -6.37056,-3.394308 -6.061666,3.844194 C 7.629467,35.40022 3.6279756,35.990285 1.2192783,33.087983 -1.0680307,30.331944 1.1631017,26.226252 7.0351339,22.385747 9.6970603,20.644759 14.96875,17.175042 18.75,14.675266 28.139309,8.468017 32.82737,6.6853299 43.763663,5.1635442 48.912398,4.4470974 55.586346,2.992208 58.594659,1.9304567 66.321966,-0.79681318 67.680489,-0.56031641 73.210434,4.4748261 75.913445,6.9359804 83.1875,13.047622 89.375,18.056254 c 16.86792,13.654173 34.50969,31.26123 33.05648,32.991433 -0.66127,0.787314 -0.81809,1.150384 -0.34849,0.806823 1.14467,-0.83744 4.69516,4.493168 9.70725,14.574194 2.27063,4.567036 5.54837,10.192036 7.28386,12.5 3.49219,4.644145 11.14575,19.740193 16.44069,32.427936 1.8894,4.5274 9.84376,18.0274 17.67635,30 21.67758,33.13553 26.80423,42.26638 38.09666,67.85241 11.04251,25.01974 11.53829,25.86811 22.87159,39.13729 4.00641,4.69076 12.8449,16.12241 19.64108,25.40366 18.25019,24.92349 19.1013,25.77094 30.57453,30.44275 10.95668,4.46147 37.6379,22.11891 48.70097,32.22994 6.80783,6.22196 6.89807,6.25997 6.16555,2.59745 -0.40886,-2.04431 -0.26483,-4.01264 0.32005,-4.37405 0.58489,-0.36141 0.96937,-7.6015 0.8544,-16.0891 -0.16955,-12.51739 0.20539,-16.25829 1.98523,-19.80699 1.88556,-3.75951 1.96686,-4.90256 0.57791,-8.125 -0.889,-2.0625 -1.64172,-6.36062 -1.67274,-9.5514 -0.048,-4.93426 0.66492,-6.67425 4.76934,-11.64116 2.65414,-3.21189 5.51458,-8.139 6.35652,-10.94915 1.65893,-5.53704 10.60398,-15.25123 19.78549,-21.48674 15.32187,-10.40565 47.50305,-9.07821 71.41786,2.94593 16.54144,8.31687 24.59499,18.59743 28.31411,36.14368 3.38032,15.94792 1.07292,34.62082 -5.12428,41.46863 -1.70267,1.88144 -5.51211,10.28476 -13.2916,29.32021 -1.88231,4.60579 -2.54116,8.96043 -2.50444,16.55288 0.0749,15.4685 4.57875,22.02865 18.21329,26.52845 3.90565,1.28897 5.00706,1.23693 6.77321,-0.32008 1.49747,-1.32012 2.94807,-1.54006 5.00193,-0.75837 1.59105,0.60553 2.61672,1.5477 2.27927,2.0937 -0.33743,0.54598 0.32955,1.07648 1.4822,1.17887 4.04964,0.35974 12.12189,2.42569 14.59573,3.73554 1.375,0.72802 5.03125,1.7315 8.125,2.22994 3.09375,0.49843 6.46875,1.63642 7.5,2.52887 1.03125,0.89245 4.21324,2.24504 7.07109,3.00575 4.02303,1.07088 5.48151,2.20191 6.46042,5.01001 0.6954,1.9948 1.00009,3.89117 0.6771,4.21415 -1.43464,1.43465 9.57784,8.59858 16.99918,11.05847 4.49196,1.48891 10.26161,4.02315 12.82143,5.63163 9.86099,6.19627 21.20672,24.6547 26.08583,42.43923 2.1944,7.99866 2.57872,12.45596 2.29476,26.61435 -0.36449,18.17315 0.97263,30.33731 5.04286,45.87707 1.52082,5.80627 3.10303,18.00462 3.94469,30.41219 1.192,17.57216 1.84935,21.57125 4.33001,26.34233 2.88877,5.55601 2.90983,5.88576 1.71695,26.87502 -0.66423,11.6875 -1.7094,23.5 -2.32258,26.25 -0.61319,2.75 -1.52629,6.96875 -2.02912,9.375 -0.50281,2.40625 -1.99927,5.24563 -3.32545,6.30971 -2.40951,1.93333 -3.81498,6.09703 -14.16433,41.96168 -2.99908,10.39301 -7.3738,23.61176 -9.72163,29.375 -2.34781,5.76324 -6.65927,16.31505 -9.58102,23.44847 l -5.31227,12.96987 10.01135,28.90513 c 12.72067,36.72753 12.07679,34.38755 9.71192,35.29503 -2.65235,1.01781 -2.46665,4.12061 0.67746,11.31897 1.45126,3.32263 4.25234,10.75347 6.2246,16.51297 1.97226,5.75951 4.9821,12.85418 6.6885,15.76596 1.70641,2.91176 5.00992,12.54319 7.34115,21.40316 2.33122,8.85998 6.009,19.81978 8.17284,24.3551 2.16385,4.53534 3.93426,8.93234 3.93426,9.77111 0,0.83878 2.46855,8.6593 5.48567,17.37895 8.57118,24.77117 8.97072,27.02769 7.01332,39.61041 -1.5163,9.74728 -1.47628,11.14618 0.4104,14.34008 1.14983,1.9465 2.09061,4.4231 2.09061,5.5035 0,1.0805 1.1229,3.8062 2.49532,6.0572 5.43994,8.9223 2.01335,13.9805 -13.45577,19.8631 l -7.83544,2.9796 0.74401,9.375 c 0.44068,5.5527 3.51443,19.1246 7.53894,33.2876 5.46406,19.2292 8.72053,27.9204 16.62655,44.375 5.40741,11.2543 11.84851,26.6499 14.31358,34.2124 5.22718,16.0364 11.99737,43.6137 11.81462,48.125 -0.16997,4.1961 3.73376,50.5864 5.31196,63.125 2.76557,21.972 4.07543,28.9669 6.33547,33.8321 1.37213,2.9539 2.37856,7.9269 2.40326,11.875 0.0234,3.7362 1.6054,14.1054 3.51562,23.0429 3.08883,14.452 3.77452,16.294 6.1969,16.648 4.35965,0.6371 10.15355,7.34 11.01812,12.7468 0.42443,2.6542 1.4879,5.1007 2.36323,5.4366 0.96509,0.3704 1.93889,4.2139 2.47403,9.7647 0.8416,8.7298 4.43097,24.2125 6.39256,27.5742 2.00633,3.4383 11.33024,14.2266 14.85738,17.1907 21.79978,18.3198 29.20155,25.8651 30.10683,30.6908 0.44893,2.3929 1.31497,4.6591 1.92453,5.0358 0.60956,0.3767 1.1083,5.7143 1.1083,11.8612 l 0,11.1762 -22.1875,-0.079 c -12.20313,-0.044 -23.3125,-0.5313 -24.6875,-1.0837 z M 524.52209,707.8278 c 2.35775,-12.18171 2.28456,-13.21367 -0.8193,-11.55253 -1.40098,0.74978 -3.58634,1.03343 -4.85637,0.63033 -2.91728,-0.92591 -8.84642,1.70143 -8.84642,3.92005 0,0.92089 0.49841,1.67435 1.10757,1.67435 0.60917,0 2.08525,2.10937 3.28019,4.6875 2.34829,5.06651 6.91469,10.67671 7.89354,9.69787 0.33262,-0.33262 1.34097,-4.40853 2.24079,-9.05757 z"
       id="path3420"
       inkscape:connector-curvature="0" />
    <path
       style="fill:#0095fd"
       d="m 704.70655,1495.5399 c -0.39058,-0.3905 -8.02536,-1.7843 -16.96623,-3.0971 -8.94085,-1.3128 -19.03905,-3.4839 -22.44045,-4.8245 -3.40138,-1.3408 -11.05108,-3.5935 -16.99931,-5.0063 -12.48929,-2.9662 -19.53496,-6.2337 -23.0344,-10.6825 -1.9857,-2.5245 -2.50631,-5.263 -2.65451,-13.9631 -0.10138,-5.9525 -0.47526,-11.2934 -0.83081,-11.8688 -0.35555,-0.5752 -0.10388,-2.0597 0.55923,-3.2987 0.66313,-1.2391 1.47594,-7.0164 1.80624,-12.8384 0.77003,-13.5726 2.94285,-30.1632 4.96386,-37.9014 3.07058,-11.7568 -1.3513,-37.4715 -9.86335,-57.3586 -2.33575,-5.4571 -4.24682,-11.253 -4.24682,-12.8796 0,-1.6268 -2.15991,-9.03 -4.7998,-16.4518 -2.6399,-7.4217 -8.0622,-23.9003 -12.04958,-36.6191 -7.5844,-24.1924 -9.9022,-29.9869 -12.63693,-31.5921 -2.43379,-1.4286 -12.2729,-22.5209 -15.90925,-34.1049 -3.68219,-11.73 -8.35444,-40.6961 -8.35444,-51.7942 0,-6.3972 -0.59746,-8.5581 -3.5691,-12.9086 -7.26374,-10.6342 -13.95115,-24.3792 -18.9628,-38.9752 -3.0462,-8.8718 -7.27444,-18.2242 -10.34941,-22.892 l -5.19905,-7.8919 -9.39731,0.9665 c -10.45835,1.0756 -13.63279,1.0338 -20.02233,-0.2642 -5.12314,-1.0407 -5.80618,-1.8517 -7.70505,-9.1484 -1.04771,-4.026 -2.4195,-6.016 -5.17019,-7.5 -8.28753,-4.4712 -12.31205,-9.3307 -18.66685,-22.5397 -3.50077,-7.2767 -9.03475,-17.1678 -12.29772,-21.9803 -7.48962,-11.04632 -11.00194,-19.0329 -18.07766,-41.10625 C 424.68122,944.70957 420.06317,932.5 418.77645,932.5 c -1.25144,0 -3.38538,5.40654 -9.37405,23.75 -2.58117,7.90625 -6.24776,18.3125 -8.14796,23.125 -1.9002,4.8125 -4.66491,13.17982 -6.1438,18.59406 -2.48508,9.09794 -13.91686,36.02434 -18.37519,43.28094 -1.05597,1.7188 -3.10674,5.7771 -4.55725,9.0186 -4.60799,10.2976 -15.04549,12.1987 -35.77643,6.5162 -6.44777,-1.7673 -12.16095,-2.7513 -12.69593,-2.1866 -2.83556,2.9932 -6.61785,20.472 -6.714,31.0268 -0.0923,10.1248 0.42024,12.7503 5.12367,26.25 12.12624,34.8046 14.32209,47.8627 13.76053,81.8307 -0.24239,14.6613 0.004,29.5285 0.54697,33.0381 0.54323,3.5097 1.85844,14.728 2.92272,24.9296 1.06427,10.2016 2.52777,19.656 3.25222,21.0096 0.72445,1.3536 1.57271,7.0694 1.88503,12.7016 0.66226,11.943 2.85396,26.143 6.92442,44.8633 2.51735,11.5773 3.28185,13.4668 5.69396,14.0722 4.19085,1.0519 8.5902,7.6979 12.18008,18.4003 1.77021,5.2775 3.21856,10.3705 3.21856,11.3177 0,0.9474 1.5893,4.2285 3.53179,7.2915 1.94247,3.063 4.56905,8.3763 5.83684,11.8073 1.26777,3.431 2.98192,7.0819 3.80921,8.1131 0.8273,1.0313 2.18333,4.7823 3.01342,8.3358 0.83009,3.5533 2.28999,7.4908 3.24424,8.75 2.15754,2.8467 2.22116,7.6473 0.15079,11.3758 -2.38406,4.2935 -14.15129,12.5588 -29.7746,20.9134 -7.7138,4.125 -17.43645,10.1669 -21.60589,13.4264 -13.4025,10.4775 -27.76236,16.7507 -47.74378,20.8573 -19.2434,3.9551 -37.81588,5.8659 -44.61483,4.5904 -6.27081,-1.1764 -7.94,-5.8546 -6.25705,-17.5365 1.45447,-10.096 6.96845,-19.289 14.76485,-24.616 7.4371,-5.0816 33.16435,-39.393 35.41104,-47.2263 0.70911,-2.4724 2.15172,-7.4352 3.20581,-11.0285 1.85497,-6.3234 1.81797,-6.756 -1.15266,-13.4732 C 291.03754,1368.1983 290.48961,1365 292.5,1365 c 0.69264,0 1.25,-3.3012 1.25,-7.4039 0,-6.627 0.4102,-7.814 3.90981,-11.3136 l 3.90981,-3.9097 -4.6369,-15.8739 c -9.64466,-33.0174 -10.77423,-37.2709 -11.3525,-42.7489 -1.32311,-12.5342 -10.77825,-42.45 -15.41343,-48.7677 -2.89763,-3.9495 -14.32381,-38.693 -18.40394,-55.9608 -3.80545,-16.1053 -6.43329,-40.7235 -7.2342,-67.7715 -0.62201,-21.0063 -1.49926,-27.8491 -5.85729,-45.6886 -2.53647,-10.3829 -2.40975,-13.995 0.8574,-24.4394 1.17814,-3.7663 1.42561,-6.788 0.71661,-8.75 -0.59565,-1.6484 -1.23468,-5.8095 -1.4201,-9.247 -0.55968,-10.3771 -0.78042,-11.5873 -2.48872,-13.6457 -2.47925,-2.9873 -7.15504,-2.5144 -8.02483,0.8116 -0.56698,2.1683 -1.06398,2.4568 -2.2274,1.2934 -1.68628,-1.6863 -1.67732,-8.9938 0.0182,-14.8544 0.64813,-2.24021 0.66143,-4.63006 0.0314,-5.625 -0.60258,-0.95144 -1.10421,-3.24357 -1.11474,-5.09362 -0.01,-1.85005 -0.64592,-3.7511 -1.41199,-4.22457 -2.58581,-1.59811 -0.31873,-10.56591 3.72893,-14.7504 3.18176,-3.28932 3.89592,-5.20337 4.49092,-12.03631 0.38913,-4.46875 1.26209,-11.78125 1.93993,-16.25 0.67784,-4.46875 1.8023,-15.05099 2.49881,-23.51607 1.31971,-16.03934 2.98101,-21.98068 7.3747,-26.37437 1.43526,-1.43526 2.31386,-2.60956 1.95246,-2.60956 -0.3614,0 0.31814,-1.82812 1.5101,-4.0625 1.19197,-2.23437 2.23093,-4.34375 2.3088,-4.6875 0.72923,-3.21885 4.37564,-7.67764 9.49294,-11.60785 l 6.16236,-4.73286 -0.34605,-9.20768 c -0.19032,-5.06422 -0.68483,-8.99947 -1.09892,-8.74498 -0.41408,0.25448 0.0847,-2.08172 1.10859,-5.19157 1.52105,-4.62025 3.18252,-6.55138 9.08525,-10.55985 10.73262,-7.2884 12.85296,-15.70355 5.10932,-20.27783 -2.71276,-1.60247 -4.07332,-3.87907 -5.62661,-9.41497 -2.19843,-7.83511 -2.75534,-25.74098 -0.94843,-30.49353 0.60514,-1.59164 1.13018,-3.36698 1.16677,-3.94522 0.0366,-0.57822 1.08835,-1.88556 2.33725,-2.90518 1.2489,-1.01963 1.51148,-1.46303 0.58352,-0.98533 -1.36896,0.70471 -1.41249,0.35521 -0.23072,-1.85291 0.80106,-1.4968 2.2602,-3.02988 3.24252,-3.40683 0.98233,-0.37696 1.50441,-1.14107 1.16019,-1.69805 C 279.92684,751.37034 301.8271,732.5 303.79248,732.5 c 0.66413,0 1.20752,-0.85139 1.20752,-1.89196 0,-1.04058 0.51557,-2.8687 1.14574,-4.0625 2.38396,-4.51632 4.42541,-10.99066 4.03461,-12.79554 -0.22329,-1.03125 -1.28926,-2.86282 -2.36884,-4.07016 -1.07956,-1.20734 -1.59617,-2.56184 -1.14802,-3.00999 0.44815,-0.44815 0.19212,-1.56514 -0.56895,-2.48217 -0.76108,-0.91704 -1.55554,-4.21509 -1.76548,-7.32901 -0.20994,-3.11391 -1.65726,-8.29662 -3.21629,-11.51714 -2.52832,-5.22283 -2.80451,-7.48221 -2.5562,-20.91102 0.29891,-16.16472 0.72119,-14.42316 -8.45817,-34.88335 -4.43382,-9.88271 -4.64,-13.5952 -1.58486,-28.53708 1.69265,-8.27833 1.9875,-13.03972 1.23851,-20 -1.61039,-14.96512 -3.17684,-64.10183 -2.05778,-64.54842 0.56967,-0.22733 0.42163,-1.56083 -0.32897,-2.96335 -0.80033,-1.49542 -0.85036,-2.23211 -0.121,-1.78133 0.68405,0.42276 1.58391,-0.11788 1.99971,-1.20139 1.16012,-3.02321 0.86583,-3.84653 -0.63108,-1.76559 -1.12174,1.55939 -1.22372,1.48959 -0.60586,-0.41474 0.40861,-1.25935 0.74292,-2.83942 0.74292,-3.51126 0,-0.67185 0.47397,-0.92861 1.05326,-0.57059 0.5793,0.35803 0.62591,-2.28065 0.10363,-5.86372 -0.52233,-3.58308 -1.30922,-10.73344 -1.74864,-15.88969 -0.43943,-5.15625 -1.02308,-10.5 -1.297,-11.875 -0.27391,-1.375 -0.83359,-7.84375 -1.24373,-14.375 -0.7944,-12.65067 -2.75281,-32.73501 -3.59565,-36.875 -0.27993,-1.375 -1.76849,-6.71875 -3.30788,-11.875 -2.77567,-9.29709 -2.93845,-9.51264 -19.58869,-25.9375 C 249.89091,372.45312 241.88569,365 241.33591,365 c -2.04595,0 -16.67871,-19.07715 -27.00417,-35.2061 -5.86912,-9.16789 -13.26851,-19.76265 -16.44309,-23.5439 -7.88154,-9.38773 -15.65082,-21.71263 -19.00272,-30.14522 -1.83994,-4.62885 -5.14253,-9.37226 -9.69526,-13.92498 -8.82135,-8.82135 -27.9886,-38.55126 -32.78119,-50.84624 C 130.90072,197.20143 119.25342,160.67929 116.84953,150 c -1.16067,-5.15625 -3.39359,-14.4375 -4.96205,-20.625 -2.98824,-11.78849 -4.6199,-20.06503 -7.01125,-35.564408 -1.26924,-8.226521 -1.98963,-9.861457 -6.167931,-13.998206 -2.601964,-2.57609 -6.614866,-5.470995 -8.917563,-6.433122 C 87.488041,72.417136 82.144425,68.223646 77.916035,64.060395 69.450004,55.724789 66.385459,54.170566 62.507714,56.245871 l -2.586716,1.384369 2.539501,3.228454 C 65.293492,64.460262 65.909415,71.25 63.403133,71.25 c -0.878277,0 -2.881463,-0.899766 -4.451525,-1.99948 -2.63062,-1.842559 -3.041202,-1.83066 -5.231577,0.151601 -3.25811,2.948549 -5.679256,1.660642 -7.523585,-4.002107 -0.855358,-2.626258 -2.850872,-6.087488 -4.434475,-7.691621 -1.74287,-1.765467 -3.428617,-5.712316 -4.271122,-10 C 35.328181,36.702125 34.560237,34.732462 31.875,33.304572 30.5,32.573409 27.850902,30.968267 25.988116,29.737593 21.613029,26.84713 20.856766,26.90446 15.2857,30.548915 9.2114885,34.522514 4.230623,35.704994 1.8587675,33.736529 -0.94417258,31.410295 -0.41436285,29.34249 4.0625,25.135537 7.6637019,21.751452 11.006531,19.521466 27.116629,9.7562393 c 2.195395,-1.3307517 8.945395,-3.1819869 15,-4.1138564 6.054604,-0.9318694 13.469717,-2.5826248 16.47803,-3.6683454 7.686603,-2.77414857 8.894563,-2.54506404 14.530341,2.7556165 2.75,2.5864882 7.529394,6.65855 10.620874,9.049026 11.390111,8.807361 16.563026,13.350107 30.250186,26.565066 6.63633,6.407383 9.25065,9.730638 8.42708,10.712279 -0.65669,0.782729 -0.81728,1.149569 -0.35687,0.815202 1.1479,-0.833651 6.22432,6.850674 10.62849,16.088689 2.00986,4.215796 5.33091,10.017333 7.38011,12.892304 2.0492,2.87497 7.15518,12.71872 11.34662,21.875 7.5965,16.5947 13.66525,26.95895 32.43793,55.39778 11.77237,17.83399 17.99637,29.6737 29.17143,55.49181 4.58072,10.583 9.00709,20.19354 9.83636,21.35675 1.53164,2.14839 11.66076,14.1961 14.08448,16.75227 0.72967,0.76955 8.88592,11.45933 18.125,23.75508 9.23907,12.29576 17.39555,23.08659 18.12552,23.97964 0.72996,0.89304 2.97997,2.01912 5,2.5024 9.56529,2.28842 42.19214,22.56541 53.27004,33.10636 8.29292,7.89095 8.15831,7.82586 8.26811,3.99754 0.0542,-1.89301 0.3121,-11.0356 0.57291,-20.31685 0.34078,-12.12716 1.02217,-17.90602 2.42183,-20.5395 1.73349,-3.26159 1.74436,-4.15102 0.0989,-8.08933 -2.87647,-6.88434 -1.53698,-15.62674 3.14163,-20.50436 2.10592,-2.1955 5.29145,-7.32391 7.07896,-11.39649 5.19681,-11.84023 20.5633,-24.40589 33.11574,-27.07979 8.58067,-1.82785 29.42536,-0.81755 39.45474,1.91228 28.68195,7.80677 43.09596,22.54437 47.13745,48.19567 2.36727,15.02502 0.9877,21.76653 -8.30989,40.60775 -13.11613,26.57932 -15.42098,34.96946 -13.27206,48.31302 1.7094,10.61441 6.61422,16.00891 17.96037,19.75348 3.3049,1.09072 5.17601,1.16291 6.28505,0.2425 1.70135,-1.412 7.07408,-0.5364 7.07408,1.15287 0,0.56459 0.98437,1.03076 2.1875,1.03593 3.35972,0.0144 11.8951,2.05571 14.6875,3.51258 1.375,0.71738 4.75,1.70684 7.5,2.19882 2.75,0.49196 6.7539,1.97225 8.89753,3.28952 2.14365,1.31728 5.0566,2.39505 6.47323,2.39505 3.45795,0 6.84144,3.57555 6.09272,6.4386 -0.88965,3.40204 7.9553,10.42455 16.95993,13.46545 4.12394,1.39268 9.93595,3.96084 12.9156,5.70704 10.3637,6.07352 22.58016,25.83355 27.44306,44.38891 1.67745,6.40066 1.98348,11.30839 1.44195,23.125 -0.7445,16.24574 0.2185,25.33637 4.8332,45.625 1.64193,7.21875 3.27001,17.0625 3.61795,21.875 0.34795,4.8125 0.99313,14.09375 1.43374,20.625 0.62397,9.24941 1.39144,12.70414 3.4711,15.625 2.44804,3.43827 2.64144,5.1008 2.32654,20 -0.56894,26.91892 -3.8973,45.99153 -8.79327,50.38831 -1.46473,1.31538 -4.79441,10.5963 -8.82985,24.61169 -9.76611,33.91845 -11.72092,39.6736 -20.80912,61.26415 l -8.37373,19.89317 3.85359,11.92134 c 2.11948,6.55674 6.68329,19.98734 10.14179,29.84579 3.45851,9.85844 5.9717,18.43656 5.58485,19.0625 -0.38685,0.62592 0.033,1.15056 0.93291,1.16585 0.89995,0.0153 0.32265,1.03829 -1.28289,2.27332 l -2.91917,2.24555 5.73167,14.49182 c 3.15238,7.97048 5.73163,15.19765 5.73163,16.06035 0,0.8627 1.97575,5.16299 4.39056,9.5562 2.60481,4.73886 6.08008,14.44085 8.54446,23.85381 2.28464,8.72639 5.58612,18.9599 7.33662,22.74115 3.40165,7.34791 14.1954,38.57877 16.20053,46.875 2.29309,9.48759 2.38789,12.53439 0.69063,22.19472 -1.57171,8.94568 -1.52854,9.95968 0.55871,13.12498 1.24412,1.8867 2.26573,4.4011 2.27025,5.5876 0.005,1.1865 1.13114,3.999 2.50356,6.25 5.45317,8.944 1.84968,14.2443 -13.41845,19.7369 l -7.79813,2.8053 0.64711,9.9342 c 0.86269,13.2435 12.51303,53.6946 19.42258,67.437 7.15081,14.2223 14.66008,31.383 18.23827,41.6793 4.61045,13.2667 12.02716,43.0295 12.30392,49.375 1.55799,35.7194 8.2338,92.0666 11.50295,97.0906 0.97189,1.4936 2.03163,5.9936 2.35498,10 0.32334,4.0064 2.08766,15.0584 3.92071,24.56 3.27516,16.9766 3.40055,17.3039 7.24691,18.911 4.81607,2.0123 8.87695,6.9964 10.02944,12.3096 0.47766,2.2021 1.50093,4.4035 2.27393,4.8922 0.773,0.4886 2.05935,5.8323 2.85855,11.875 0.7992,6.0426 2.16105,13.7991 3.02635,17.2366 2.03027,8.0655 11.67451,21.3004 20.4617,28.0796 3.73441,2.881 6.96286,5.6505 7.17435,6.1544 0.21147,0.5037 3.47826,3.3239 7.25951,6.2669 8.83181,6.8739 12.08469,11.0141 13.16105,16.7516 0.47695,2.5424 1.36707,4.6225 1.97806,4.6225 0.61099,0 1.11089,5.0625 1.11089,11.25 l 0,11.25 -22.29166,0 c -12.26043,0 -22.61123,-0.3195 -23.00179,-0.7101 z M 523.64095,712.8125 c 0.68051,-2.57813 1.61586,-7.62141 2.07855,-11.2073 l 0.84125,-6.51981 -3.73798,1.07203 c -2.05587,0.58963 -4.47321,0.61763 -5.37185,0.0622 -0.97344,-0.60161 -2.79367,-0.16798 -4.50312,1.07278 -3.23099,2.34512 -3.53583,3.3968 -1.61536,5.57282 0.73284,0.83035 2.99421,4.46287 5.02529,8.07224 2.03106,3.60938 4.22228,6.5625 4.86937,6.5625 0.6471,0 1.73333,-2.10937 2.41385,-4.6875 z"
       id="path3418"
       inkscape:connector-curvature="0" />
  </g>
</svg>
